<svg width="14" height="16" viewBox="0 0 14 16" fill="none" xmlns="http://www.w3.org/2000/svg">
<path d="M8.375 13C8.125 13 8 12.875 8 12.625V5.875C8 5.625 8.125 5.5 8.375 5.5H9.125C9.375 5.5 9.5 5.625 9.5 5.875V12.625C9.5 12.875 9.375 13 9.125 13H8.375ZM13.5 2.5C13.6458 2.5 13.7604 2.55208 13.8438 2.65625C13.9479 2.73958 14 2.85417 14 3V3.5C14 3.64583 13.9479 3.77083 13.8438 3.875C13.7604 3.95833 13.6458 4 13.5 4H13V14.5C13 14.9167 12.8542 15.2708 12.5625 15.5625C12.2708 15.8542 11.9167 16 11.5 16H2.5C2.08333 16 1.72917 15.8542 1.4375 15.5625C1.14583 15.2708 1 14.9167 1 14.5V4H0.5C0.354167 4 0.229167 3.95833 0.125 3.875C0.0416667 3.77083 0 3.64583 0 3.5V3C0 2.85417 0.0416667 2.73958 0.125 2.65625C0.229167 2.55208 0.354167 2.5 0.5 2.5H3.0625L4.125 0.71875C4.25 0.53125 4.4375 0.364583 4.6875 0.21875C4.9375 0.0729167 5.1875 0 5.4375 0H8.5625C8.72917 0 8.89583 0.03125 9.0625 0.09375C9.22917 0.15625 9.38542 0.25 9.53125 0.375C9.67708 0.479167 9.79167 0.59375 9.875 0.71875L10.9375 2.5H13.5ZM5.375 1.59375L4.8125 2.5H9.1875L8.625 1.59375C8.58333 1.53125 8.53125 1.5 8.46875 1.5H5.53125C5.46875 1.5 5.41667 1.53125 5.375 1.59375ZM11.5 14.5V4H2.5V14.5H11.5ZM4.875 13C4.625 13 4.5 12.875 4.5 12.625V5.875C4.5 5.625 4.625 5.5 4.875 5.5H5.625C5.875 5.5 6 5.625 6 5.875V12.625C6 12.875 5.875 13 5.625 13H4.875Z" fill="#9E9E9E"/>
</svg>
