<svg width="18" height="18" viewBox="0 0 18 18" fill="none" xmlns="http://www.w3.org/2000/svg">
<g clip-path="url(#clip0)">
<path d="M8.99854 11.7107C9.45826 11.7033 9.88856 11.6408 10.2821 11.5231C10.6977 12.358 11.9481 13.6194 15.6332 14.5462C16.7145 14.8221 16.7807 16.1828 16.7255 16.9699C16.6998 17.3156 16.9646 17.6172 17.3103 17.6429C17.325 17.6429 17.3397 17.6429 17.3544 17.6429C17.6817 17.6429 17.9612 17.3891 17.9833 17.0581C18.1231 15.0501 17.3802 13.6893 15.9385 13.3215C12.5733 12.4756 11.6649 11.4275 11.4222 10.9678C11.6576 10.7986 11.8782 10.6037 12.0768 10.3756C13.7539 8.48528 13.4817 5.2562 13.4486 4.93624C13.2537 0.743587 9.96947 0.372133 8.96544 0.357422H8.93969C8.93234 0.357422 8.92498 0.357422 8.91395 0.357422H8.89188C6.8213 0.379488 4.55948 1.59683 4.39766 4.93624C4.36456 5.2562 4.0924 8.48528 5.76946 10.3756C5.99748 10.6331 6.25493 10.8574 6.53076 11.0413C6.23286 11.5194 5.24722 12.5235 2.0586 13.3215C0.620595 13.6856 -0.125991 15.0501 0.0174417 17.0545C0.0395083 17.3855 0.319018 17.6392 0.646339 17.6392C0.66105 17.6392 0.675761 17.6392 0.690472 17.6392C1.03618 17.6135 1.30098 17.3119 1.27524 16.9662C1.22007 16.1792 1.28995 14.8184 2.36753 14.5426C5.94967 13.6452 7.24057 12.4205 7.69293 11.5562C8.05335 11.6518 8.43952 11.7033 8.85143 11.7107H8.99854ZM8.90659 10.4492C7.96876 10.4382 7.2516 10.1403 6.71465 9.54079C5.35755 8.01452 5.65177 5.07967 5.65177 5.05025C5.65177 5.03554 5.65545 5.0245 5.65545 5.00979C5.78785 2.08965 7.7481 1.62993 8.90659 1.61889H8.92498H8.94705C10.1019 1.63361 12.0621 2.097 12.1945 5.00979C12.1945 5.02082 12.1945 5.03554 12.1982 5.04657C12.2019 5.07599 12.4961 8.01084 11.1353 9.53712C10.5984 10.1403 9.88488 10.4345 8.94337 10.4455H8.90659V10.4492Z" fill="#8795A9"/>
</g>
<defs>
<clipPath id="clip0">
<rect width="18" height="18" fill="white"/>
</clipPath>
</defs>
</svg>
