<svg width="11" height="11" viewBox="0 0 11 11" fill="none" xmlns="http://www.w3.org/2000/svg">
<path d="M10 4.375C10.2031 4.375 10.375 4.45312 10.5156 4.60938C10.6719 4.75 10.75 4.92188 10.75 5.125V5.875C10.75 6.07812 10.6719 6.25781 10.5156 6.41406C10.375 6.55469 10.2031 6.625 10 6.625H6.625V10C6.625 10.2031 6.54688 10.375 6.39062 10.5156C6.25 10.6719 6.07812 10.75 5.875 10.75H5.125C4.92188 10.75 4.74219 10.6719 4.58594 10.5156C4.44531 10.375 4.375 10.2031 4.375 10V6.625H1C0.796875 6.625 0.617188 6.55469 0.460938 6.41406C0.320312 6.25781 0.25 6.07812 0.25 5.875V5.125C0.25 4.92188 0.320312 4.75 0.460938 4.60938C0.617188 4.45312 0.796875 4.375 1 4.375H4.375V1C4.375 0.796875 4.44531 0.625 4.58594 0.484375C4.74219 0.328125 4.92188 0.25 5.125 0.25H5.875C6.07812 0.25 6.25 0.328125 6.39062 0.484375C6.54688 0.625 6.625 0.796875 6.625 1V4.375H10Z" fill="#4C63B6"/>
</svg>
