<svg width="14" height="19" viewBox="0 0 14 19" fill="none" xmlns="http://www.w3.org/2000/svg">
    <path d="M8.125 5.03125C8.125 5.26562 8.20703 5.46484 8.37109 5.62891C8.53516 5.79297 8.73438 5.875 8.96875 5.875H13.75V17.4062C13.75 17.6406 13.668 17.8398 13.5039 18.0039C13.3398 18.168 13.1406 18.25 12.9062 18.25H1.09375C0.859375 18.25 0.660156 18.168 0.496094 18.0039C0.332031 17.8398 0.25 17.6406 0.25 17.4062V1.09375C0.25 0.859375 0.332031 0.660156 0.496094 0.496094C0.660156 0.332031 0.859375 0.25 1.09375 0.25H8.125V5.03125ZM10.375 13.3281V13.0469C10.375 12.7656 10.2344 12.625 9.95312 12.625H4.04688C3.76562 12.625 3.625 12.7656 3.625 13.0469V13.3281C3.625 13.6094 3.76562 13.75 4.04688 13.75H9.95312C10.2344 13.75 10.375 13.6094 10.375 13.3281ZM10.375 11.0781V10.7969C10.375 10.5156 10.2344 10.375 9.95312 10.375H4.04688C3.76562 10.375 3.625 10.5156 3.625 10.7969V11.0781C3.625 11.3594 3.76562 11.5 4.04688 11.5H9.95312C10.2344 11.5 10.375 11.3594 10.375 11.0781ZM10.375 8.54688C10.375 8.26562 10.2344 8.125 9.95312 8.125H4.04688C3.76562 8.125 3.625 8.26562 3.625 8.54688V8.82812C3.625 9.10938 3.76562 9.25 4.04688 9.25H9.95312C10.2344 9.25 10.375 9.10938 10.375 8.82812V8.54688ZM13.75 4.53906V4.75H9.25V0.25H9.46094C9.69531 0.25 9.89453 0.332031 10.0586 0.496094L13.5039 3.94141C13.668 4.10547 13.75 4.30469 13.75 4.53906Z" fill="#BDBDBD"/>
</svg>
