<svg width="16" height="16" viewBox="0 0 16 16" fill="none" xmlns="http://www.w3.org/2000/svg">
<path d="M10.5 5H5C5.22917 3.58333 5.59375 2.4375 6.09375 1.5625C6.59375 0.6875 7.14583 0.25 7.75 0.25C8.35417 0.25 8.90625 0.6875 9.40625 1.5625C9.90625 2.4375 10.2708 3.58333 10.5 5ZM4.84375 10C4.78125 9.33333 4.75 8.66667 4.75 8C4.75 7.33333 4.78125 6.66667 4.84375 6H10.6562C10.7188 6.66667 10.75 7.33333 10.75 8C10.75 8.66667 10.7188 9.33333 10.6562 10H4.84375ZM14.9062 5H11.5312C11.2188 3.08333 10.6979 1.60417 9.96875 0.5625C11.0729 0.895833 12.0521 1.45833 12.9062 2.25C13.7812 3.02083 14.4479 3.9375 14.9062 5ZM5.53125 0.5625C4.78125 1.60417 4.26042 3.08333 3.96875 5H0.59375C1.05208 3.9375 1.70833 3.02083 2.5625 2.25C3.4375 1.45833 4.42708 0.895833 5.53125 0.5625ZM15.2188 6C15.4062 6.66667 15.5 7.33333 15.5 8C15.5 8.66667 15.4062 9.33333 15.2188 10H11.6562C11.7188 9.3125 11.75 8.64583 11.75 8C11.75 7.35417 11.7188 6.6875 11.6562 6H15.2188ZM3.75 8C3.75 8.625 3.78125 9.29167 3.84375 10H0.28125C0.09375 9.3125 0 8.64583 0 8C0 7.35417 0.09375 6.6875 0.28125 6H3.84375C3.78125 6.6875 3.75 7.35417 3.75 8ZM5 11H10.5C10.2708 12.4167 9.90625 13.5625 9.40625 14.4375C8.90625 15.3125 8.35417 15.75 7.75 15.75C7.14583 15.75 6.59375 15.3125 6.09375 14.4375C5.59375 13.5625 5.22917 12.4167 5 11ZM9.96875 15.4375C10.7188 14.3958 11.2396 12.9167 11.5312 11H14.9062C14.4479 12.0625 13.7812 12.9896 12.9062 13.7812C12.0521 14.5521 11.0729 15.1042 9.96875 15.4375ZM0.59375 11H3.96875C4.28125 12.9167 4.80208 14.3958 5.53125 15.4375C4.42708 15.1042 3.4375 14.5521 2.5625 13.7812C1.70833 12.9896 1.05208 12.0625 0.59375 11Z" fill="#BDBDBD"/>
</svg>
