<svg width="21" height="17" viewBox="0 0 21 17" fill="none" xmlns="http://www.w3.org/2000/svg">
<path d="M10.2539 4.45312C10.3477 4.40625 10.4414 4.38281 10.5352 4.38281C10.6289 4.38281 10.7227 4.40625 10.8164 4.45312L17.2852 9.79688V15.5625C17.2852 15.7266 17.2266 15.8555 17.1094 15.9492C17.0156 16.0664 16.8867 16.125 16.7227 16.125H12.7852C12.6211 16.125 12.4805 16.0664 12.3633 15.9492C12.2695 15.832 12.2227 15.7031 12.2227 15.5625V12.1875C12.2227 12.0938 12.1992 12 12.1523 11.9062C12.1055 11.8125 12.0352 11.7422 11.9414 11.6953C11.8477 11.6484 11.7539 11.625 11.6602 11.625H9.41016C9.24609 11.625 9.10547 11.6836 8.98828 11.8008C8.89453 11.8945 8.84766 12.0234 8.84766 12.1875V15.5625C8.84766 15.7031 8.78906 15.832 8.67188 15.9492C8.57812 16.0664 8.44922 16.125 8.28516 16.125H4.34766C4.18359 16.125 4.04297 16.0664 3.92578 15.9492C3.83203 15.8555 3.78516 15.7266 3.78516 15.5625V9.79688L10.2539 4.45312ZM20.5195 8.07422C20.6133 8.16797 20.6602 8.28516 20.6602 8.42578C20.6602 8.51953 20.625 8.60156 20.5547 8.67188L19.6758 9.76172C19.582 9.87891 19.4766 9.9375 19.3594 9.9375C19.2422 9.9375 19.1484 9.90234 19.0781 9.83203L10.8164 3.01172C10.7227 2.96484 10.6289 2.94141 10.5352 2.94141C10.4414 2.94141 10.3477 2.96484 10.2539 3.01172L1.99219 9.83203C1.92188 9.90234 1.83984 9.9375 1.74609 9.9375C1.60547 9.9375 1.48828 9.87891 1.39453 9.76172L0.515625 8.67188C0.445312 8.60156 0.410156 8.51953 0.410156 8.42578C0.410156 8.28516 0.457031 8.16797 0.550781 8.07422L9.44531 0.761719C9.77344 0.503906 10.1367 0.375 10.5352 0.375C10.9336 0.375 11.2852 0.503906 11.5898 0.761719L14.7539 3.36328V0.796875C14.7539 0.679688 14.7891 0.585938 14.8594 0.515625C14.9531 0.421875 15.0586 0.375 15.1758 0.375H17.1445C17.2617 0.375 17.3555 0.421875 17.4258 0.515625C17.5195 0.585938 17.5664 0.679688 17.5664 0.796875V5.68359L20.5195 8.07422Z" fill="#BDBDBD"/>
</svg>
