<svg width="11" height="11" viewBox="0 0 11 11" fill="none" xmlns="http://www.w3.org/2000/svg">
<path d="M10.5625 4.875H6.625V0.9375C6.625 0.71875 6.40625 0.5 6.1875 0.5H5.3125C5.06641 0.5 4.875 0.71875 4.875 0.9375V4.875H0.9375C0.691406 4.875 0.5 5.09375 0.5 5.3125V6.1875C0.5 6.43359 0.691406 6.625 0.9375 6.625H4.875V10.5625C4.875 10.8086 5.06641 11 5.3125 11H6.1875C6.40625 11 6.625 10.8086 6.625 10.5625V6.625H10.5625C10.7812 6.625 11 6.43359 11 6.1875V5.3125C11 5.09375 10.7812 4.875 10.5625 4.875Z" fill="#BED0F7"/>
</svg>
