<svg xmlns="http://www.w3.org/2000/svg" viewBox="75.22 88.66 424.54999999999995 411.39"> <svg xmlns="http://www.w3.org/2000/svg" viewBox="0.1289060115814209 0.14917001128196716 91.54219055175781 91.35143280029297" fill="none" height="171" width="172" y="158" x="201" preserveAspectRatio="xMinYMin" style="overflow: visible;"><path d="M60.9027 60.6686C60.9027 60.7322 60.8392 60.8594 60.8392 60.9229C56.5799 76.625 47.2986 89.657 46.0271 91.5006V45.9202H46.2178L60.9027 60.6686Z" fill="#E6E6E6" style="fill: #ffffff; fill-opacity: 1;"></path><path d="M46.0271 0.339885V45.1574L45.7093 45.4753L30.8972 30.6633C35.5379 13.8805 45.8364 0.14917 45.8364 0.14917C45.8364 0.14917 45.9 0.212743 46.0271 0.339885Z" fill="#E6E6E6" style="fill: #ffffff; fill-opacity: 1;"></path><path d="M91.6711 45.9204H46.2178L46.0271 45.7297V45.1576L60.3942 30.7905C60.5213 30.8541 60.712 30.8541 60.8392 30.9177C77.8126 35.4948 91.6711 45.9204 91.6711 45.9204Z" fill="#E6E6E6" style="fill: #ffffff; fill-opacity: 1;"></path><path d="M45.2643 45.9205L30.7701 60.4147L30.4523 60.7325C13.7331 56.0283 0.128906 45.8569 0.128906 45.8569H45.2643V45.9205Z" fill="#E6E6E6" style="fill: #ffffff; fill-opacity: 1;"></path><path d="M60.9027 60.6686C60.9027 60.7322 60.8392 60.8594 60.8392 60.9229C56.5799 76.625 47.2986 89.657 46.0271 91.5006V45.9202H46.2178L60.9027 60.6686Z" fill="white" style="fill: #ffffff; fill-opacity: 1;"></path><path d="M46.0271 0.339885V45.1574L45.7093 45.4753L30.8972 30.6633C35.5379 13.8805 45.8364 0.14917 45.8364 0.14917C45.8364 0.14917 45.9 0.212743 46.0271 0.339885Z" fill="white" style="fill: #ffffff; fill-opacity: 1;"></path><path d="M91.6711 45.9204H46.2178L46.0271 45.7297V45.1576L60.3942 30.7905C60.5213 30.8541 60.712 30.8541 60.8392 30.9177C77.8126 35.4948 91.6711 45.9204 91.6711 45.9204Z" fill="white" style="fill: #ffffff; fill-opacity: 1;"></path><path d="M45.2643 45.9205L30.7701 60.4147L30.4523 60.7325C13.7331 56.0283 0.128906 45.8569 0.128906 45.8569H45.2643V45.9205Z" fill="white" style="fill: #ffffff; fill-opacity: 1;"></path><path d="M75.9691 15.5334L60.3942 30.7904L57.4699 21.3819C64.9713 16.7412 75.9691 15.4063 75.9691 15.4063C75.9691 15.4063 76.0326 15.4062 75.9691 15.5334Z" fill="white" style="fill: #ffffff; fill-opacity: 1;"></path><path d="M75.9055 76.816L61.0299 60.8597L70.502 58.1897C74.952 65.8182 76.0327 76.8796 76.0327 76.8796C76.0327 76.8796 75.9691 76.816 75.9055 76.816Z" fill="white" style="fill: #ffffff; fill-opacity: 1;"></path><path d="M14.8138 76.0532L30.3887 60.7961L33.313 70.2046C25.8116 74.8453 14.8138 76.1803 14.8138 76.1803C14.8138 76.1803 14.7502 76.1167 14.8138 76.0532Z" fill="white" style="fill: #ffffff; fill-opacity: 1;"></path><path d="M15.5131 15.2156L30.8972 30.6633L21.5523 33.6512C16.8481 26.2134 15.3859 15.2156 15.3859 15.2156C15.3859 15.2156 15.4495 15.2156 15.5131 15.2156Z" fill="white" style="fill: #ffffff; fill-opacity: 1;"></path></svg> <svg y="411" viewBox="0.5799999833106995 5.010000228881836 284.5500183105469 18.3799991607666" x="145" height="18" width="284" style="overflow: visible;"><g fill="#ffffff" fill-opacity="0.7" style=""><path d="M9.55 6.73L9.08 7.65Q8.99 7.80 8.89 7.88Q8.79 7.95 8.63 7.95L8.63 7.95Q8.46 7.95 8.23 7.78Q8.01 7.61 7.67 7.41Q7.32 7.20 6.83 7.03Q6.35 6.86 5.66 6.86L5.66 6.86Q5.01 6.86 4.51 7.04Q4.01 7.21 3.68 7.51Q3.34 7.81 3.17 8.22Q3 8.62 3 9.09L3 9.09Q3 9.69 3.29 10.09Q3.59 10.48 4.08 10.76Q4.56 11.04 5.17 11.25Q5.79 11.45 6.44 11.67Q7.08 11.89 7.70 12.17Q8.31 12.44 8.79 12.86Q9.28 13.28 9.58 13.89Q9.87 14.50 9.87 15.39L9.87 15.39Q9.87 16.33 9.55 17.16Q9.23 17.98 8.62 18.59Q8 19.20 7.11 19.55Q6.21 19.90 5.07 19.90L5.07 19.90Q3.68 19.90 2.54 19.40Q1.39 18.89 0.58 18.03L0.58 18.03L1.14 17.11Q1.22 17 1.33 16.93Q1.45 16.85 1.59 16.85L1.59 16.85Q1.80 16.85 2.07 17.08Q2.34 17.30 2.75 17.57Q3.15 17.84 3.73 18.07Q4.30 18.29 5.13 18.29L5.13 18.29Q5.82 18.29 6.36 18.10Q6.90 17.91 7.28 17.57Q7.65 17.22 7.85 16.74Q8.05 16.26 8.05 15.67L8.05 15.67Q8.05 15.02 7.75 14.61Q7.46 14.19 6.98 13.91Q6.50 13.63 5.88 13.44Q5.27 13.24 4.63 13.04Q3.98 12.83 3.37 12.56Q2.75 12.29 2.27 11.86Q1.79 11.43 1.50 10.79Q1.20 10.14 1.20 9.19L1.20 9.19Q1.20 8.43 1.50 7.72Q1.79 7.01 2.35 6.46Q2.91 5.91 3.73 5.58Q4.56 5.25 5.63 5.25L5.63 5.25Q6.83 5.25 7.82 5.63Q8.81 6.01 9.55 6.73L9.55 6.73ZM12.26 9.61L14.04 9.61L14.04 19.74L12.26 19.74L12.26 9.61ZM14.44 6.43L14.44 6.43Q14.44 6.69 14.33 6.92Q14.23 7.14 14.05 7.32Q13.88 7.49 13.65 7.59Q13.42 7.69 13.16 7.69L13.16 7.69Q12.90 7.69 12.68 7.59Q12.45 7.49 12.28 7.32Q12.10 7.14 12 6.92Q11.90 6.69 11.90 6.43L11.90 6.43Q11.90 6.17 12 5.94Q12.10 5.70 12.28 5.53Q12.45 5.35 12.68 5.25Q12.90 5.15 13.16 5.15L13.16 5.15Q13.42 5.15 13.65 5.25Q13.88 5.35 14.05 5.53Q14.23 5.70 14.33 5.94Q14.44 6.17 14.44 6.43ZM18.96 19.74L17.18 19.74L17.18 9.61L18.24 9.61Q18.62 9.61 18.72 9.98L18.72 9.98L18.85 11.02Q19.41 10.33 20.10 9.89Q20.80 9.45 21.72 9.45L21.72 9.45Q22.75 9.45 23.38 10.02Q24.02 10.59 24.30 11.56L24.30 11.56Q24.51 11.01 24.85 10.61Q25.20 10.21 25.63 9.95Q26.06 9.69 26.55 9.57Q27.03 9.45 27.53 9.45L27.53 9.45Q28.33 9.45 28.95 9.71Q29.58 9.96 30.02 10.45Q30.45 10.94 30.68 11.66Q30.91 12.37 30.91 13.29L30.91 13.29L30.91 19.74L29.13 19.74L29.13 13.29Q29.13 12.10 28.61 11.49Q28.09 10.87 27.10 10.87L27.10 10.87Q26.66 10.87 26.27 11.03Q25.87 11.18 25.57 11.48Q25.27 11.78 25.09 12.24Q24.92 12.69 24.92 13.29L24.92 13.29L24.92 19.74L23.14 19.74L23.14 13.29Q23.14 12.07 22.65 11.47Q22.16 10.87 21.22 10.87L21.22 10.87Q20.56 10.87 19.99 11.23Q19.43 11.58 18.96 12.19L18.96 12.19L18.96 19.74ZM35.38 23.17L33.60 23.17L33.60 9.61L34.66 9.61Q35.04 9.61 35.14 9.98L35.14 9.98L35.29 11.18Q35.94 10.39 36.77 9.91Q37.61 9.43 38.70 9.43L38.70 9.43Q39.57 9.43 40.28 9.77Q40.99 10.10 41.49 10.76Q41.99 11.41 42.26 12.38Q42.53 13.35 42.53 14.61L42.53 14.61Q42.53 15.73 42.23 16.70Q41.93 17.66 41.37 18.37Q40.81 19.07 40.00 19.48Q39.18 19.88 38.16 19.88L38.16 19.88Q37.22 19.88 36.55 19.57Q35.89 19.26 35.38 18.69L35.38 18.69L35.38 23.17ZM38.11 10.87L38.11 10.87Q37.24 10.87 36.59 11.27Q35.93 11.67 35.38 12.40L35.38 12.40L35.38 17.30Q35.87 17.96 36.45 18.23Q37.04 18.50 37.76 18.50L37.76 18.50Q39.17 18.50 39.93 17.49Q40.69 16.48 40.69 14.61L40.69 14.61Q40.69 13.62 40.52 12.91Q40.34 12.20 40.01 11.75Q39.68 11.29 39.20 11.08Q38.72 10.87 38.11 10.87ZM44.84 5.01L46.62 5.01L46.62 19.74L44.84 19.74L44.84 5.01ZM53.77 9.45L53.77 9.45Q54.68 9.45 55.45 9.76Q56.22 10.06 56.78 10.64Q57.34 11.21 57.66 12.06Q57.97 12.90 57.97 13.98L57.97 13.98Q57.97 14.40 57.88 14.54Q57.79 14.68 57.54 14.68L57.54 14.68L50.80 14.68Q50.82 15.64 51.06 16.35Q51.30 17.06 51.72 17.54Q52.14 18.01 52.72 18.25Q53.30 18.48 54.02 18.48L54.02 18.48Q54.69 18.48 55.17 18.33Q55.66 18.17 56.01 17.99Q56.36 17.81 56.59 17.66Q56.83 17.50 57 17.50L57 17.50Q57.22 17.50 57.34 17.67L57.34 17.67L57.84 18.32Q57.51 18.72 57.05 19.02Q56.59 19.31 56.06 19.50Q55.54 19.69 54.98 19.79Q54.42 19.88 53.87 19.88L53.87 19.88Q52.82 19.88 51.93 19.53Q51.05 19.17 50.40 18.49Q49.76 17.80 49.40 16.79Q49.04 15.78 49.04 14.47L49.04 14.47Q49.04 13.41 49.36 12.49Q49.69 11.57 50.30 10.90Q50.91 10.22 51.79 9.84Q52.67 9.45 53.77 9.45ZM53.81 10.76L53.81 10.76Q52.52 10.76 51.78 11.51Q51.04 12.25 50.86 13.57L50.86 13.57L56.37 13.57Q56.37 12.95 56.20 12.44Q56.03 11.92 55.70 11.55Q55.37 11.17 54.89 10.97Q54.42 10.76 53.81 10.76ZM64.30 9.61L66.08 9.61L66.08 19.74L64.30 19.74L64.30 9.61ZM66.48 6.43L66.48 6.43Q66.48 6.69 66.38 6.92Q66.27 7.14 66.09 7.32Q65.92 7.49 65.69 7.59Q65.46 7.69 65.20 7.69L65.20 7.69Q64.94 7.69 64.72 7.59Q64.49 7.49 64.31 7.32Q64.14 7.14 64.04 6.92Q63.94 6.69 63.94 6.43L63.94 6.43Q63.94 6.17 64.04 5.94Q64.14 5.70 64.31 5.53Q64.49 5.35 64.72 5.25Q64.94 5.15 65.20 5.15L65.20 5.15Q65.46 5.15 65.69 5.25Q65.92 5.35 66.09 5.53Q66.27 5.70 66.38 5.94Q66.48 6.17 66.48 6.43ZM71 19.74L69.22 19.74L69.22 9.61L70.28 9.61Q70.66 9.61 70.76 9.98L70.76 9.98L70.90 11.08Q71.56 10.35 72.38 9.90Q73.19 9.45 74.26 9.45L74.26 9.45Q75.09 9.45 75.73 9.73Q76.36 10.00 76.79 10.51Q77.21 11.01 77.43 11.72Q77.65 12.43 77.65 13.29L77.65 13.29L77.65 19.74L75.87 19.74L75.87 13.29Q75.87 12.14 75.34 11.51Q74.82 10.87 73.74 10.87L73.74 10.87Q72.95 10.87 72.27 11.25Q71.58 11.63 71 12.28L71 12.28L71 19.74ZM87.72 10.77L87.25 11.41Q87.17 11.52 87.09 11.58Q87.01 11.64 86.86 11.64L86.86 11.64Q86.71 11.64 86.54 11.52Q86.36 11.39 86.09 11.24Q85.82 11.09 85.44 10.97Q85.05 10.84 84.49 10.84L84.49 10.84Q83.75 10.84 83.18 11.11Q82.61 11.37 82.23 11.87Q81.84 12.37 81.65 13.08Q81.45 13.79 81.45 14.67L81.45 14.67Q81.45 15.59 81.66 16.31Q81.87 17.02 82.25 17.51Q82.63 17.99 83.18 18.25Q83.72 18.50 84.40 18.50L84.40 18.50Q85.05 18.50 85.47 18.35Q85.89 18.19 86.17 18.00Q86.45 17.81 86.63 17.66Q86.81 17.50 86.99 17.50L86.99 17.50Q87.22 17.50 87.33 17.67L87.33 17.67L87.83 18.32Q87.17 19.13 86.18 19.51Q85.19 19.88 84.09 19.88L84.09 19.88Q83.14 19.88 82.33 19.53Q81.51 19.18 80.91 18.52Q80.31 17.85 79.97 16.88Q79.62 15.91 79.62 14.67L79.62 14.67Q79.62 13.54 79.94 12.58Q80.25 11.62 80.86 10.93Q81.46 10.23 82.35 9.84Q83.24 9.45 84.39 9.45L84.39 9.45Q85.45 9.45 86.27 9.80Q87.09 10.14 87.72 10.77L87.72 10.77ZM93.78 9.45L93.78 9.45Q94.89 9.45 95.79 9.82Q96.68 10.19 97.31 10.87Q97.93 11.55 98.27 12.52Q98.60 13.48 98.60 14.67L98.60 14.67Q98.60 15.87 98.27 16.83Q97.93 17.79 97.31 18.47Q96.68 19.15 95.79 19.52Q94.89 19.88 93.78 19.88L93.78 19.88Q92.67 19.88 91.78 19.52Q90.88 19.15 90.25 18.47Q89.62 17.79 89.28 16.83Q88.94 15.87 88.94 14.67L88.94 14.67Q88.94 13.48 89.28 12.52Q89.62 11.55 90.25 10.87Q90.88 10.19 91.78 9.82Q92.67 9.45 93.78 9.45ZM93.78 18.49L93.78 18.49Q95.28 18.49 96.02 17.49Q96.76 16.48 96.76 14.68L96.76 14.68Q96.76 12.87 96.02 11.86Q95.28 10.85 93.78 10.85L93.78 10.85Q93.02 10.85 92.46 11.11Q91.90 11.37 91.53 11.86Q91.15 12.35 90.97 13.07Q90.78 13.78 90.78 14.68L90.78 14.68Q90.78 15.58 90.97 16.29Q91.15 17 91.53 17.49Q91.90 17.97 92.46 18.23Q93.02 18.49 93.78 18.49ZM102.58 19.74L100.80 19.74L100.80 9.61L101.86 9.61Q102.24 9.61 102.34 9.98L102.34 9.98L102.47 11.02Q103.03 10.33 103.73 9.89Q104.42 9.45 105.34 9.45L105.34 9.45Q106.37 9.45 107.01 10.02Q107.64 10.59 107.92 11.56L107.92 11.56Q108.13 11.01 108.48 10.61Q108.82 10.21 109.25 9.95Q109.68 9.69 110.17 9.57Q110.65 9.45 111.15 9.45L111.15 9.45Q111.95 9.45 112.58 9.71Q113.20 9.96 113.64 10.45Q114.07 10.94 114.30 11.66Q114.53 12.37 114.53 13.29L114.53 13.29L114.53 19.74L112.75 19.74L112.75 13.29Q112.75 12.10 112.23 11.49Q111.71 10.87 110.72 10.87L110.72 10.87Q110.28 10.87 109.89 11.03Q109.49 11.18 109.19 11.48Q108.89 11.78 108.72 12.24Q108.54 12.69 108.54 13.29L108.54 13.29L108.54 19.74L106.76 19.74L106.76 13.29Q106.76 12.07 106.27 11.47Q105.78 10.87 104.84 10.87L104.84 10.87Q104.18 10.87 103.62 11.23Q103.05 11.58 102.58 12.19L102.58 12.19L102.58 19.74ZM121.23 9.45L121.23 9.45Q122.14 9.45 122.91 9.76Q123.68 10.06 124.24 10.64Q124.80 11.21 125.12 12.06Q125.43 12.90 125.43 13.98L125.43 13.98Q125.43 14.40 125.34 14.54Q125.25 14.68 125.00 14.68L125.00 14.68L118.26 14.68Q118.28 15.64 118.52 16.35Q118.76 17.06 119.18 17.54Q119.60 18.01 120.18 18.25Q120.76 18.48 121.48 18.48L121.48 18.48Q122.15 18.48 122.64 18.33Q123.12 18.17 123.47 17.99Q123.82 17.81 124.06 17.66Q124.29 17.50 124.46 17.50L124.46 17.50Q124.68 17.50 124.80 17.67L124.80 17.67L125.30 18.32Q124.97 18.72 124.51 19.02Q124.05 19.31 123.53 19.50Q123.00 19.69 122.44 19.79Q121.88 19.88 121.33 19.88L121.33 19.88Q120.28 19.88 119.40 19.53Q118.51 19.17 117.87 18.49Q117.22 17.80 116.86 16.79Q116.50 15.78 116.50 14.47L116.50 14.47Q116.50 13.41 116.83 12.49Q117.15 11.57 117.76 10.90Q118.37 10.22 119.25 9.84Q120.13 9.45 121.23 9.45ZM121.27 10.76L121.27 10.76Q119.98 10.76 119.24 11.51Q118.50 12.25 118.32 13.57L118.32 13.57L123.83 13.57Q123.83 12.95 123.66 12.44Q123.49 11.92 123.16 11.55Q122.83 11.17 122.36 10.97Q121.88 10.76 121.27 10.76ZM137.76 10.63L137.36 11.28Q137.24 11.50 136.99 11.50L136.99 11.50Q136.84 11.50 136.65 11.39Q136.46 11.28 136.19 11.15Q135.91 11.01 135.53 10.90Q135.15 10.78 134.63 10.78L134.63 10.78Q134.18 10.78 133.82 10.90Q133.46 11.01 133.21 11.21Q132.95 11.41 132.82 11.68Q132.68 11.94 132.68 12.25L132.68 12.25Q132.68 12.64 132.91 12.90Q133.13 13.16 133.50 13.35Q133.87 13.54 134.34 13.69Q134.81 13.83 135.31 14.00Q135.80 14.16 136.27 14.36Q136.74 14.56 137.11 14.86Q137.48 15.16 137.71 15.60Q137.93 16.03 137.93 16.64L137.93 16.64Q137.93 17.34 137.68 17.94Q137.43 18.53 136.94 18.97Q136.45 19.40 135.74 19.65Q135.03 19.90 134.10 19.90L134.10 19.90Q133.04 19.90 132.18 19.56Q131.32 19.21 130.72 18.67L130.72 18.67L131.14 17.99Q131.22 17.86 131.33 17.79Q131.44 17.72 131.62 17.72L131.62 17.72Q131.80 17.72 132.00 17.86Q132.20 18.00 132.49 18.17Q132.77 18.34 133.18 18.48Q133.58 18.62 134.19 18.62L134.19 18.62Q134.71 18.62 135.10 18.49Q135.49 18.35 135.75 18.12Q136.01 17.89 136.14 17.59Q136.26 17.29 136.26 16.95L136.26 16.95Q136.26 16.53 136.04 16.26Q135.81 15.98 135.44 15.79Q135.07 15.59 134.60 15.45Q134.12 15.30 133.63 15.14Q133.13 14.98 132.66 14.78Q132.18 14.57 131.81 14.26Q131.44 13.95 131.22 13.50Q130.99 13.04 130.99 12.39L130.99 12.39Q130.99 11.81 131.23 11.28Q131.47 10.74 131.93 10.34Q132.39 9.93 133.06 9.69Q133.73 9.45 134.59 9.45L134.59 9.45Q135.59 9.45 136.39 9.77Q137.18 10.08 137.76 10.63L137.76 10.63ZM142.02 19.74L140.24 19.74L140.24 5.01L142.02 5.01L142.02 10.97Q142.67 10.28 143.46 9.87Q144.25 9.45 145.28 9.45L145.28 9.45Q146.11 9.45 146.75 9.73Q147.38 10.00 147.81 10.51Q148.23 11.01 148.45 11.72Q148.67 12.43 148.67 13.29L148.67 13.29L148.67 19.74L146.89 19.74L146.89 13.29Q146.89 12.14 146.37 11.51Q145.84 10.87 144.76 10.87L144.76 10.87Q143.97 10.87 143.29 11.25Q142.60 11.63 142.02 12.28L142.02 12.28L142.02 19.74ZM158.80 13.26L158.80 19.74L158.01 19.74Q157.75 19.74 157.59 19.66Q157.43 19.58 157.38 19.32L157.38 19.32L157.18 18.38Q156.78 18.74 156.40 19.03Q156.02 19.31 155.60 19.51Q155.18 19.70 154.71 19.80Q154.23 19.90 153.65 19.90L153.65 19.90Q153.06 19.90 152.55 19.74Q152.03 19.57 151.65 19.24Q151.27 18.91 151.05 18.41Q150.82 17.90 150.82 17.21L150.82 17.21Q150.82 16.61 151.15 16.06Q151.48 15.50 152.22 15.07Q152.95 14.64 154.14 14.37Q155.33 14.09 157.05 14.05L157.05 14.05L157.05 13.26Q157.05 12.08 156.55 11.48Q156.04 10.87 155.05 10.87L155.05 10.87Q154.40 10.87 153.96 11.04Q153.51 11.20 153.19 11.41Q152.86 11.61 152.63 11.78Q152.39 11.94 152.16 11.94L152.16 11.94Q151.98 11.94 151.85 11.85Q151.71 11.75 151.63 11.61L151.63 11.61L151.31 11.04Q152.15 10.23 153.12 9.83Q154.09 9.43 155.27 9.43L155.27 9.43Q156.12 9.43 156.78 9.71Q157.44 9.99 157.89 10.49Q158.34 10.99 158.57 11.70Q158.80 12.41 158.80 13.26L158.80 13.26ZM154.18 18.65L154.18 18.65Q154.65 18.65 155.04 18.56Q155.43 18.46 155.78 18.29Q156.12 18.11 156.44 17.86Q156.75 17.61 157.05 17.29L157.05 17.29L157.05 15.18Q155.82 15.22 154.96 15.38Q154.10 15.53 153.56 15.78Q153.02 16.03 152.78 16.37Q152.53 16.71 152.53 17.13L152.53 17.13Q152.53 17.53 152.66 17.82Q152.79 18.11 153.01 18.30Q153.23 18.48 153.53 18.57Q153.83 18.65 154.18 18.65ZM163.28 19.74L161.50 19.74L161.50 9.61L162.52 9.61Q162.81 9.61 162.92 9.72Q163.03 9.83 163.07 10.10L163.07 10.10L163.19 11.68Q163.71 10.62 164.48 10.03Q165.24 9.43 166.27 9.43L166.27 9.43Q166.69 9.43 167.03 9.53Q167.37 9.62 167.66 9.79L167.66 9.79L167.43 11.12Q167.36 11.37 167.12 11.37L167.12 11.37Q166.98 11.37 166.69 11.28Q166.40 11.18 165.88 11.18L165.88 11.18Q164.95 11.18 164.33 11.72Q163.70 12.26 163.28 13.29L163.28 13.29L163.28 19.74ZM173.57 9.45L173.57 9.45Q174.48 9.45 175.25 9.76Q176.02 10.06 176.58 10.64Q177.14 11.21 177.46 12.06Q177.77 12.90 177.77 13.98L177.77 13.98Q177.77 14.40 177.68 14.54Q177.59 14.68 177.34 14.68L177.34 14.68L170.60 14.68Q170.62 15.64 170.86 16.35Q171.10 17.06 171.52 17.54Q171.94 18.01 172.52 18.25Q173.10 18.48 173.82 18.48L173.82 18.48Q174.49 18.48 174.98 18.33Q175.46 18.17 175.81 17.99Q176.16 17.81 176.40 17.66Q176.63 17.50 176.80 17.50L176.80 17.50Q177.02 17.50 177.14 17.67L177.14 17.67L177.64 18.32Q177.31 18.72 176.85 19.02Q176.39 19.31 175.87 19.50Q175.34 19.69 174.78 19.79Q174.22 19.88 173.67 19.88L173.67 19.88Q172.62 19.88 171.74 19.53Q170.85 19.17 170.21 18.49Q169.56 17.80 169.20 16.79Q168.84 15.78 168.84 14.47L168.84 14.47Q168.84 13.41 169.17 12.49Q169.49 11.57 170.10 10.90Q170.71 10.22 171.59 9.84Q172.47 9.45 173.57 9.45ZM173.61 10.76L173.61 10.76Q172.32 10.76 171.58 11.51Q170.84 12.25 170.66 13.57L170.66 13.57L176.17 13.57Q176.17 12.95 176.00 12.44Q175.83 11.92 175.50 11.55Q175.17 11.17 174.70 10.97Q174.22 10.76 173.61 10.76ZM191.34 13.26L191.34 19.74L190.55 19.74Q190.29 19.74 190.13 19.66Q189.97 19.58 189.92 19.32L189.92 19.32L189.72 18.38Q189.32 18.74 188.94 19.03Q188.56 19.31 188.14 19.51Q187.72 19.70 187.25 19.80Q186.77 19.90 186.19 19.90L186.19 19.90Q185.60 19.90 185.09 19.74Q184.57 19.57 184.19 19.24Q183.81 18.91 183.59 18.41Q183.36 17.90 183.36 17.21L183.36 17.21Q183.36 16.61 183.69 16.06Q184.02 15.50 184.76 15.07Q185.49 14.64 186.68 14.37Q187.87 14.09 189.59 14.05L189.59 14.05L189.59 13.26Q189.59 12.08 189.09 11.48Q188.58 10.87 187.59 10.87L187.59 10.87Q186.94 10.87 186.50 11.04Q186.05 11.20 185.73 11.41Q185.40 11.61 185.17 11.78Q184.93 11.94 184.70 11.94L184.70 11.94Q184.52 11.94 184.39 11.85Q184.25 11.75 184.17 11.61L184.17 11.61L183.85 11.04Q184.69 10.23 185.66 9.83Q186.63 9.43 187.81 9.43L187.81 9.43Q188.66 9.43 189.32 9.71Q189.98 9.99 190.43 10.49Q190.88 10.99 191.11 11.70Q191.34 12.41 191.34 13.26L191.34 13.26ZM186.72 18.65L186.72 18.65Q187.19 18.65 187.58 18.56Q187.97 18.46 188.32 18.29Q188.66 18.11 188.98 17.86Q189.29 17.61 189.59 17.29L189.59 17.29L189.59 15.18Q188.36 15.22 187.50 15.38Q186.64 15.53 186.10 15.78Q185.56 16.03 185.32 16.37Q185.07 16.71 185.07 17.13L185.07 17.13Q185.07 17.53 185.20 17.82Q185.33 18.11 185.55 18.30Q185.77 18.48 186.07 18.57Q186.37 18.65 186.72 18.65ZM197.45 9.44L197.45 9.44Q198.11 9.44 198.69 9.59Q199.26 9.73 199.73 10.01L199.73 10.01L202.48 10.01L202.48 10.67Q202.48 11.00 202.06 11.09L202.06 11.09L200.91 11.25Q201.25 11.90 201.25 12.70L201.25 12.70Q201.25 13.44 200.97 14.05Q200.68 14.65 200.18 15.08Q199.67 15.51 198.98 15.74Q198.28 15.97 197.45 15.97L197.45 15.97Q196.74 15.97 196.11 15.80L196.11 15.80Q195.79 16 195.63 16.23Q195.46 16.46 195.46 16.68L195.46 16.68Q195.46 17.04 195.75 17.23Q196.04 17.41 196.52 17.49Q197.00 17.57 197.61 17.59Q198.22 17.61 198.86 17.66Q199.49 17.70 200.10 17.81Q200.71 17.92 201.19 18.17Q201.67 18.42 201.96 18.86Q202.25 19.30 202.25 20.00L202.25 20.00Q202.25 20.65 201.93 21.26Q201.60 21.87 200.99 22.35Q200.38 22.82 199.50 23.11Q198.62 23.39 197.51 23.39L197.51 23.39Q196.40 23.39 195.57 23.17Q194.73 22.95 194.18 22.58Q193.63 22.21 193.36 21.73Q193.08 21.24 193.08 20.71L193.08 20.71Q193.08 19.96 193.56 19.44Q194.03 18.91 194.86 18.60L194.86 18.60Q194.43 18.40 194.18 18.07Q193.92 17.73 193.92 17.17L193.92 17.17Q193.92 16.95 194.00 16.72Q194.08 16.48 194.25 16.25Q194.41 16.02 194.65 15.81Q194.89 15.60 195.21 15.44L195.21 15.44Q194.46 15.02 194.04 14.33Q193.61 13.63 193.61 12.70L193.61 12.70Q193.61 11.96 193.90 11.36Q194.18 10.75 194.69 10.33Q195.20 9.90 195.91 9.67Q196.61 9.44 197.45 9.44ZM200.61 20.29L200.61 20.29Q200.61 19.91 200.40 19.68Q200.19 19.45 199.83 19.33Q199.47 19.20 199.00 19.14Q198.53 19.08 198.01 19.06Q197.49 19.03 196.95 19.00Q196.41 18.97 195.92 18.89L195.92 18.89Q195.35 19.16 195.00 19.55Q194.64 19.94 194.64 20.48L194.64 20.48Q194.64 20.82 194.82 21.12Q194.99 21.41 195.35 21.63Q195.71 21.84 196.26 21.97Q196.80 22.09 197.54 22.09L197.54 22.09Q198.26 22.09 198.83 21.96Q199.40 21.83 199.80 21.59Q200.19 21.35 200.40 21.02Q200.61 20.69 200.61 20.29ZM197.45 14.79L197.45 14.79Q197.99 14.79 198.41 14.64Q198.82 14.49 199.10 14.22Q199.38 13.95 199.52 13.58Q199.66 13.20 199.66 12.75L199.66 12.75Q199.66 11.82 199.10 11.27Q198.53 10.72 197.45 10.72L197.45 10.72Q196.38 10.72 195.82 11.27Q195.25 11.82 195.25 12.75L195.25 12.75Q195.25 13.20 195.40 13.58Q195.54 13.95 195.82 14.22Q196.10 14.49 196.51 14.64Q196.92 14.79 197.45 14.79ZM206.04 19.74L204.26 19.74L204.26 9.61L205.28 9.61Q205.57 9.61 205.68 9.72Q205.79 9.83 205.83 10.10L205.83 10.10L205.95 11.68Q206.47 10.62 207.24 10.03Q208.00 9.43 209.03 9.43L209.03 9.43Q209.45 9.43 209.79 9.53Q210.13 9.62 210.42 9.79L210.42 9.79L210.19 11.12Q210.12 11.37 209.88 11.37L209.88 11.37Q209.74 11.37 209.45 11.28Q209.16 11.18 208.64 11.18L208.64 11.18Q207.71 11.18 207.09 11.72Q206.46 12.26 206.04 13.29L206.04 13.29L206.04 19.74ZM216.33 9.45L216.33 9.45Q217.24 9.45 218.01 9.76Q218.78 10.06 219.34 10.64Q219.90 11.21 220.22 12.06Q220.53 12.90 220.53 13.98L220.53 13.98Q220.53 14.40 220.44 14.54Q220.35 14.68 220.10 14.68L220.10 14.68L213.36 14.68Q213.38 15.64 213.62 16.35Q213.86 17.06 214.28 17.54Q214.70 18.01 215.28 18.25Q215.86 18.48 216.58 18.48L216.58 18.48Q217.25 18.48 217.74 18.33Q218.22 18.17 218.57 17.99Q218.92 17.81 219.16 17.66Q219.39 17.50 219.56 17.50L219.56 17.50Q219.78 17.50 219.90 17.67L219.90 17.67L220.40 18.32Q220.07 18.72 219.61 19.02Q219.15 19.31 218.63 19.50Q218.10 19.69 217.54 19.79Q216.98 19.88 216.43 19.88L216.43 19.88Q215.38 19.88 214.50 19.53Q213.61 19.17 212.97 18.49Q212.32 17.80 211.96 16.79Q211.60 15.78 211.60 14.47L211.60 14.47Q211.60 13.41 211.93 12.49Q212.25 11.57 212.86 10.90Q213.47 10.22 214.35 9.84Q215.23 9.45 216.33 9.45ZM216.37 10.76L216.37 10.76Q215.08 10.76 214.34 11.51Q213.60 12.25 213.42 13.57L213.42 13.57L218.93 13.57Q218.93 12.95 218.76 12.44Q218.59 11.92 218.26 11.55Q217.93 11.17 217.46 10.97Q216.98 10.76 216.37 10.76ZM226.81 9.45L226.81 9.45Q227.72 9.45 228.49 9.76Q229.26 10.06 229.82 10.64Q230.38 11.21 230.70 12.06Q231.01 12.90 231.01 13.98L231.01 13.98Q231.01 14.40 230.92 14.54Q230.83 14.68 230.58 14.68L230.58 14.68L223.84 14.68Q223.86 15.64 224.10 16.35Q224.34 17.06 224.76 17.54Q225.18 18.01 225.76 18.25Q226.34 18.48 227.06 18.48L227.06 18.48Q227.73 18.48 228.22 18.33Q228.70 18.17 229.05 17.99Q229.40 17.81 229.64 17.66Q229.87 17.50 230.04 17.50L230.04 17.50Q230.26 17.50 230.38 17.67L230.38 17.67L230.88 18.32Q230.55 18.72 230.09 19.02Q229.63 19.31 229.11 19.50Q228.58 19.69 228.02 19.79Q227.46 19.88 226.91 19.88L226.91 19.88Q225.86 19.88 224.98 19.53Q224.09 19.17 223.45 18.49Q222.80 17.80 222.44 16.79Q222.08 15.78 222.08 14.47L222.08 14.47Q222.08 13.41 222.41 12.49Q222.73 11.57 223.34 10.90Q223.95 10.22 224.83 9.84Q225.71 9.45 226.81 9.45ZM226.85 10.76L226.85 10.76Q225.56 10.76 224.82 11.51Q224.08 12.25 223.90 13.57L223.90 13.57L229.41 13.57Q229.41 12.95 229.24 12.44Q229.07 11.92 228.74 11.55Q228.41 11.17 227.94 10.97Q227.46 10.76 226.85 10.76ZM235.06 19.74L233.28 19.74L233.28 9.61L234.34 9.61Q234.72 9.61 234.82 9.98L234.82 9.98L234.95 11.02Q235.51 10.33 236.21 9.89Q236.90 9.45 237.82 9.45L237.82 9.45Q238.85 9.45 239.49 10.02Q240.12 10.59 240.40 11.56L240.40 11.56Q240.61 11.01 240.96 10.61Q241.30 10.21 241.73 9.95Q242.16 9.69 242.65 9.57Q243.13 9.45 243.63 9.45L243.63 9.45Q244.43 9.45 245.06 9.71Q245.68 9.96 246.12 10.45Q246.55 10.94 246.78 11.66Q247.01 12.37 247.01 13.29L247.01 13.29L247.01 19.74L245.23 19.74L245.23 13.29Q245.23 12.10 244.71 11.49Q244.19 10.87 243.20 10.87L243.20 10.87Q242.76 10.87 242.37 11.03Q241.97 11.18 241.67 11.48Q241.37 11.78 241.20 12.24Q241.02 12.69 241.02 13.29L241.02 13.29L241.02 19.74L239.24 19.74L239.24 13.29Q239.24 12.07 238.75 11.47Q238.26 10.87 237.32 10.87L237.32 10.87Q236.66 10.87 236.10 11.23Q235.53 11.58 235.06 12.19L235.06 12.19L235.06 19.74ZM253.71 9.45L253.71 9.45Q254.62 9.45 255.39 9.76Q256.16 10.06 256.72 10.64Q257.28 11.21 257.60 12.06Q257.91 12.90 257.91 13.98L257.91 13.98Q257.91 14.40 257.82 14.54Q257.73 14.68 257.48 14.68L257.48 14.68L250.74 14.68Q250.76 15.64 251 16.35Q251.24 17.06 251.66 17.54Q252.08 18.01 252.66 18.25Q253.24 18.48 253.96 18.48L253.96 18.48Q254.63 18.48 255.12 18.33Q255.60 18.17 255.95 17.99Q256.30 17.81 256.54 17.66Q256.77 17.50 256.94 17.50L256.94 17.50Q257.16 17.50 257.28 17.67L257.28 17.67L257.78 18.32Q257.45 18.72 256.99 19.02Q256.53 19.31 256.00 19.50Q255.48 19.69 254.92 19.79Q254.36 19.88 253.81 19.88L253.81 19.88Q252.76 19.88 251.88 19.53Q250.99 19.17 250.34 18.49Q249.70 17.80 249.34 16.79Q248.98 15.78 248.98 14.47L248.98 14.47Q248.98 13.41 249.31 12.49Q249.63 11.57 250.24 10.90Q250.85 10.22 251.73 9.84Q252.61 9.45 253.71 9.45ZM253.75 10.76L253.75 10.76Q252.46 10.76 251.72 11.51Q250.98 12.25 250.80 13.57L250.80 13.57L256.31 13.57Q256.31 12.95 256.14 12.44Q255.97 11.92 255.64 11.55Q255.31 11.17 254.84 10.97Q254.36 10.76 253.75 10.76ZM261.96 19.74L260.18 19.74L260.18 9.61L261.24 9.61Q261.62 9.61 261.72 9.98L261.72 9.98L261.86 11.08Q262.52 10.35 263.34 9.90Q264.15 9.45 265.22 9.45L265.22 9.45Q266.05 9.45 266.69 9.73Q267.32 10.00 267.75 10.51Q268.17 11.01 268.39 11.72Q268.61 12.43 268.61 13.29L268.61 13.29L268.61 19.74L266.83 19.74L266.83 13.29Q266.83 12.14 266.31 11.51Q265.78 10.87 264.70 10.87L264.70 10.87Q263.91 10.87 263.23 11.25Q262.54 11.63 261.96 12.28L261.96 12.28L261.96 19.74ZM274.37 19.90L274.37 19.90Q273.17 19.90 272.53 19.23Q271.88 18.56 271.88 17.30L271.88 17.30L271.88 11.10L270.66 11.10Q270.50 11.10 270.39 11.01Q270.28 10.91 270.28 10.71L270.28 10.71L270.28 10.00L271.94 9.79L272.35 6.66Q272.37 6.51 272.48 6.42Q272.59 6.32 272.76 6.32L272.76 6.32L273.66 6.32L273.66 9.81L276.56 9.81L276.56 11.10L273.66 11.10L273.66 17.18Q273.66 17.82 273.97 18.13Q274.28 18.44 274.77 18.44L274.77 18.44Q275.05 18.44 275.26 18.37Q275.46 18.29 275.61 18.20Q275.76 18.11 275.87 18.04Q275.97 17.96 276.05 17.96L276.05 17.96Q276.19 17.96 276.30 18.13L276.30 18.13L276.82 18.98Q276.36 19.41 275.71 19.66Q275.06 19.90 274.37 19.90ZM284.96 10.63L284.56 11.28Q284.44 11.50 284.19 11.50L284.19 11.50Q284.04 11.50 283.85 11.39Q283.66 11.28 283.38 11.15Q283.11 11.01 282.73 10.90Q282.35 10.78 281.83 10.78L281.83 10.78Q281.38 10.78 281.02 10.90Q280.66 11.01 280.41 11.21Q280.15 11.41 280.01 11.68Q279.88 11.94 279.88 12.25L279.88 12.25Q279.88 12.64 280.11 12.90Q280.33 13.16 280.70 13.35Q281.07 13.54 281.54 13.69Q282.01 13.83 282.50 14.00Q283 14.16 283.47 14.36Q283.94 14.56 284.31 14.86Q284.68 15.16 284.91 15.60Q285.13 16.03 285.13 16.64L285.13 16.64Q285.13 17.34 284.88 17.94Q284.63 18.53 284.14 18.97Q283.65 19.40 282.94 19.65Q282.23 19.90 281.30 19.90L281.30 19.90Q280.24 19.90 279.38 19.56Q278.52 19.21 277.92 18.67L277.92 18.67L278.34 17.99Q278.42 17.86 278.53 17.79Q278.64 17.72 278.82 17.72L278.82 17.72Q279 17.72 279.20 17.86Q279.40 18.00 279.69 18.17Q279.97 18.34 280.38 18.48Q280.78 18.62 281.39 18.62L281.39 18.62Q281.91 18.62 282.30 18.49Q282.69 18.35 282.95 18.12Q283.21 17.89 283.34 17.59Q283.46 17.29 283.46 16.95L283.46 16.95Q283.46 16.53 283.24 16.26Q283.01 15.98 282.64 15.79Q282.27 15.59 281.80 15.45Q281.32 15.30 280.82 15.14Q280.33 14.98 279.86 14.78Q279.38 14.57 279.01 14.26Q278.64 13.95 278.42 13.50Q278.19 13.04 278.19 12.39L278.19 12.39Q278.19 11.81 278.43 11.28Q278.67 10.74 279.13 10.34Q279.59 9.93 280.26 9.69Q280.93 9.45 281.79 9.45L281.79 9.45Q282.79 9.45 283.59 9.77Q284.38 10.08 284.96 10.63L284.96 10.63Z" transform="translate(0, 0)"></path></g></svg> <svg y="367" viewBox="1.6500000953674316 -0.12000000476837158 233.20001220703125 22.8624324798584" x="170" height="22" width="233" style="overflow: visible;"><g fill="#ffffff" fill-opacity="1" style=""><path d="M17.73 17.67L19.20 20.79Q18.72 21.12 17.77 21.60Q16.83 22.08 15.52 22.43Q14.22 22.77 12.63 22.74L12.63 22.74Q10.08 22.71 8.04 21.82Q6 20.94 4.59 19.43Q3.18 17.91 2.42 15.95Q1.65 13.98 1.65 11.76L1.65 11.76Q1.65 9.27 2.43 7.20Q3.21 5.13 4.65 3.62Q6.09 2.10 8.07 1.26Q10.05 0.42 12.39 0.42L12.39 0.42Q14.46 0.42 16.09 0.98Q17.73 1.53 18.84 2.22L18.84 2.22L17.46 5.49Q16.62 4.92 15.36 4.35Q14.10 3.78 12.51 3.78L12.51 3.78Q11.07 3.78 9.75 4.37Q8.43 4.95 7.44 6.02Q6.45 7.08 5.87 8.49Q5.28 9.90 5.28 11.55L5.28 11.55Q5.28 13.26 5.80 14.70Q6.33 16.14 7.30 17.18Q8.28 18.21 9.64 18.80Q11.01 19.38 12.72 19.38L12.72 19.38Q14.40 19.38 15.67 18.86Q16.95 18.33 17.73 17.67L17.73 17.67ZM23.50 11.61L23.50 11.61Q23.50 9.33 24.37 7.32Q25.24 5.31 26.77 3.75Q28.30 2.19 30.32 1.30Q32.35 0.42 34.66 0.42L34.66 0.42Q36.94 0.42 38.96 1.30Q40.99 2.19 42.53 3.75Q44.08 5.31 44.96 7.32Q45.85 9.33 45.85 11.61L45.85 11.61Q45.85 13.92 44.96 15.95Q44.08 17.97 42.53 19.50Q40.99 21.03 38.96 21.89Q36.94 22.74 34.66 22.74L34.66 22.74Q32.32 22.74 30.31 21.89Q28.30 21.03 26.77 19.52Q25.24 18 24.37 15.98Q23.50 13.95 23.50 11.61ZM27.10 11.61L27.10 11.61Q27.10 13.23 27.68 14.64Q28.27 16.05 29.32 17.12Q30.37 18.18 31.75 18.78Q33.13 19.38 34.75 19.38L34.75 19.38Q36.31 19.38 37.67 18.78Q39.04 18.18 40.06 17.12Q41.08 16.05 41.66 14.64Q42.25 13.23 42.25 11.61L42.25 11.61Q42.25 9.96 41.65 8.55Q41.05 7.14 40.03 6.06Q39.01 4.98 37.63 4.38Q36.25 3.78 34.66 3.78L34.66 3.78Q33.07 3.78 31.69 4.38Q30.31 4.98 29.27 6.06Q28.24 7.14 27.67 8.57Q27.10 9.99 27.10 11.61ZM54.89 22.50L51.50 22.50L51.50-0.12L51.53-0.12L63.29 16.53L61.79 16.20L73.49-0.12L73.55-0.12L73.55 22.50L70.07 22.50L70.07 7.77L70.31 9.54L62.39 20.73L62.33 20.73L54.29 9.54L54.89 7.92L54.89 22.50ZM83.94 22.50L80.55 22.50L80.55-0.12L80.58-0.12L92.34 16.53L90.84 16.20L102.54-0.12L102.60-0.12L102.60 22.50L99.12 22.50L99.12 7.77L99.36 9.54L91.44 20.73L91.38 20.73L83.34 9.54L83.94 7.92L83.94 22.50ZM109.60 22.50L109.60 0.66L113.11 0.66L113.11 22.50L109.60 22.50ZM118.55 4.02L118.55 0.66L133.16 0.66L133.16 4.02L127.52 4.02L127.52 22.50L124.04 22.50L124.04 4.02L118.55 4.02ZM152.59 22.50L149.20 22.50L149.20-0.12L149.23-0.12L160.99 16.53L159.49 16.20L171.19-0.12L171.25-0.12L171.25 22.50L167.77 22.50L167.77 7.77L168.01 9.54L160.09 20.73L160.03 20.73L151.99 9.54L152.59 7.92L152.59 22.50ZM181.40 0.66L181.40 14.64Q181.40 15.93 182.07 17.01Q182.75 18.09 183.86 18.72Q184.97 19.35 186.35 19.35L186.35 19.35Q187.79 19.35 188.93 18.72Q190.07 18.09 190.73 17.01Q191.39 15.93 191.39 14.64L191.39 14.64L191.39 0.66L194.84 0.66L194.84 14.73Q194.84 17.10 193.70 18.91Q192.56 20.73 190.64 21.73Q188.72 22.74 186.35 22.74L186.35 22.74L186.35 22.74Q184.01 22.74 182.09 21.73Q180.17 20.73 179.04 18.91Q177.92 17.10 177.92 14.73L177.92 14.73L177.92 0.66L181.40 0.66ZM214.26 2.43L212.94 5.10Q211.77 4.50 210.45 4.07Q209.13 3.63 207.93 3.63L207.93 3.63Q206.31 3.63 205.36 4.35Q204.42 5.07 204.42 6.33L204.42 6.33Q204.42 7.23 205.06 7.91Q205.71 8.58 206.75 9.08Q207.78 9.57 208.92 10.02L208.92 10.02Q209.91 10.38 210.88 10.88Q211.86 11.37 212.64 12.09Q213.42 12.81 213.87 13.88Q214.32 14.94 214.32 16.50L214.32 16.50Q214.32 18.21 213.46 19.64Q212.61 21.06 210.99 21.90Q209.37 22.74 207.06 22.74L207.06 22.74Q205.68 22.74 204.38 22.44Q203.07 22.14 201.90 21.61Q200.73 21.09 199.74 20.43L199.74 20.43L201.30 17.70Q202.02 18.24 202.95 18.69Q203.88 19.14 204.87 19.41Q205.86 19.68 206.73 19.68L206.73 19.68Q207.66 19.68 208.57 19.37Q209.49 19.05 210.10 18.36Q210.72 17.67 210.72 16.53L210.72 16.53Q210.72 15.60 210.19 14.94Q209.67 14.28 208.80 13.79Q207.93 13.29 206.91 12.90L206.91 12.90Q205.89 12.51 204.84 12.03Q203.79 11.55 202.88 10.85Q201.96 10.14 201.39 9.12Q200.82 8.10 200.82 6.60L200.82 6.60Q200.82 4.80 201.66 3.48Q202.50 2.16 203.98 1.38Q205.47 0.60 207.42 0.54L207.42 0.54Q209.73 0.54 211.36 1.10Q213 1.65 214.26 2.43L214.26 2.43ZM219.94 22.50L219.94 0.66L234.43 0.66L234.43 4.02L223.45 4.02L223.45 9.84L233.23 9.84L233.23 13.20L223.45 13.20L223.45 19.14L234.85 19.14L234.85 22.50L219.94 22.50Z" transform="translate(0, 0)"></path></g></svg></svg>