<svg width="18" height="17" viewBox="0 0 18 17" fill="none" xmlns="http://www.w3.org/2000/svg">
<path d="M17.4375 3.75V4.3125C17.4375 4.5 17.3438 4.59375 17.1562 4.59375H16.3125V5.01562C16.3125 5.29688 16.1719 5.4375 15.8906 5.4375H2.10938C1.82812 5.4375 1.6875 5.29688 1.6875 5.01562V4.59375H0.84375C0.65625 4.59375 0.5625 4.5 0.5625 4.3125V3.75C0.5625 3.63281 0.621094 3.55078 0.738281 3.50391L8.89453 0.410156C8.91797 0.386719 8.95312 0.375 9 0.375C9.04688 0.375 9.08203 0.386719 9.10547 0.410156L17.2617 3.50391C17.3789 3.55078 17.4375 3.63281 17.4375 3.75ZM16.5938 14.4375C16.8281 14.4375 17.0273 14.5195 17.1914 14.6836C17.3555 14.8477 17.4375 15.0469 17.4375 15.2812V15.8438C17.4375 16.0312 17.3438 16.125 17.1562 16.125H0.84375C0.65625 16.125 0.5625 16.0312 0.5625 15.8438V15.2812C0.5625 15.0469 0.644531 14.8477 0.808594 14.6836C0.972656 14.5195 1.17188 14.4375 1.40625 14.4375H16.5938ZM3.375 6H5.625V12.75H7.875V6H10.125V12.75H12.375V6H14.625V12.75H15.8906C16.1719 12.75 16.3125 12.8906 16.3125 13.1719V13.875H1.6875V13.1719C1.6875 12.8906 1.82812 12.75 2.10938 12.75H3.375V6Z" fill="#BDBDBD"/>
</svg>
