<svg width="18" height="19" viewBox="0 0 18 19" fill="none" xmlns="http://www.w3.org/2000/svg">
<path d="M12.9375 3.37891C11.8477 3.37891 10.9688 4.25781 10.9688 5.34766C10.9688 6.40234 11.8477 7.31641 12.9375 7.31641C13.9922 7.31641 14.9062 6.40234 14.9062 5.34766C14.9062 4.25781 13.9922 3.37891 12.9375 3.37891ZM12.9375 6.19141C12.4453 6.19141 12.0938 5.80469 12.0938 5.34766C12.0938 4.85547 12.4453 4.50391 12.9375 4.50391C13.3945 4.50391 13.7812 4.85547 13.7812 5.34766C13.7812 5.80469 13.3945 6.19141 12.9375 6.19141ZM17.7539 0.953125C17.6836 0.742188 17.5078 0.566406 17.2969 0.496094C16.1719 0.25 15.293 0.25 14.4141 0.25C10.793 0.25 8.61328 2.21875 6.99609 4.75H3.33984C2.74219 4.75 2.07422 5.17188 1.82812 5.69922L0.0703125 9.17969C0.0351562 9.28516 0 9.42578 0 9.53125C0 10.0234 0.351562 10.375 0.84375 10.375H4.5C6.36328 10.375 7.875 11.8867 7.875 13.75V17.4062C7.875 17.8984 8.22656 18.25 8.71875 18.25C8.82422 18.25 9 18.2148 9.07031 18.1797L12.5508 16.457C13.0781 16.1758 13.5 15.5078 13.5 14.9453V11.2539C16.0312 9.63672 17.9648 7.45703 17.9648 3.83594C18 2.95703 18 2.07812 17.7539 0.953125ZM1.30078 9.25L2.8125 6.19141C2.88281 6.08594 3.16406 5.875 3.33984 5.875H6.32812C5.83594 6.89453 5.20312 8.125 4.64062 9.25V9.28516C4.60547 9.28516 2.14453 9.25 1.30078 9.25ZM12.375 14.9453C12.375 15.0859 12.1641 15.3672 12.0586 15.4375L9 16.9844C9 16.1406 8.96484 13.6445 8.96484 13.6094H9C10.125 13.0469 11.3555 12.4141 12.3398 11.9219H12.375V14.9453ZM8.75391 12.4492C8.36719 11.1836 7.06641 9.88281 5.80078 9.49609C7.62891 5.83984 9.31641 1.375 14.4141 1.375C15.1523 1.375 15.8555 1.375 16.6992 1.55078C16.875 2.39453 16.875 3.09766 16.8398 3.83594C16.8398 8.93359 12.4102 10.6562 8.75391 12.4492ZM3.58594 11.5C1.89844 11.5 0.0703125 12.9062 0 17.125V18.25H1.125C7.13672 18.1445 7.59375 14.207 5.80078 12.4141C5.27344 11.8867 4.46484 11.5 3.58594 11.5ZM5.44922 15.3672C4.99219 16.457 3.41016 17.0898 1.08984 17.125C1.125 17.0195 1.05469 12.6602 3.58594 12.6602C4.11328 12.6602 4.67578 12.8711 5.02734 13.2227C5.48438 13.6445 5.76562 14.5586 5.44922 15.3672Z" fill="#954BDE"/>
</svg>
