<svg width="14" height="16" viewBox="0 0 14 16" fill="none" xmlns="http://www.w3.org/2000/svg">
<path d="M9.8125 6.84375C9.04167 7.61458 8.10417 8 7 8C5.89583 8 4.94792 7.61458 4.15625 6.84375C3.38542 6.05208 3 5.10417 3 4C3 2.89583 3.38542 1.95833 4.15625 1.1875C4.94792 0.395833 5.89583 0 7 0C8.10417 0 9.04167 0.395833 9.8125 1.1875C10.6042 1.95833 11 2.89583 11 4C11 5.10417 10.6042 6.05208 9.8125 6.84375ZM9.8125 9C10.9583 9 11.9375 9.41667 12.75 10.25C13.5833 11.0625 14 12.0417 14 13.1875V14.5C14 14.9167 13.8542 15.2708 13.5625 15.5625C13.2708 15.8542 12.9167 16 12.5 16H1.5C1.08333 16 0.729167 15.8542 0.4375 15.5625C0.145833 15.2708 0 14.9167 0 14.5V13.1875C0 12.0417 0.40625 11.0625 1.21875 10.25C2.05208 9.41667 3.04167 9 4.1875 9H4.71875C5.44792 9.33333 6.20833 9.5 7 9.5C7.79167 9.5 8.55208 9.33333 9.28125 9H9.8125Z" fill="#BDBDBD"/>
</svg>
