<svg width="352" height="338" viewBox="0 0 352 338" fill="none" xmlns="http://www.w3.org/2000/svg">
<path opacity="0.98" d="M0 178C0 172.477 4.47715 168 10 168H342C347.523 168 352 172.477 352 178V317C352 322.523 347.523 327 342 327H9.99999C4.47714 327 0 322.523 0 317V178Z" fill="#24273F"/>
<path d="M210.217 300.033C210.892 300.307 211.437 300.576 211.851 300.84C212.271 301.1 212.601 301.423 212.842 301.811C213.084 302.198 213.205 302.679 213.205 303.253C213.205 303.782 213.093 304.242 212.87 304.634C212.647 305.026 212.33 305.34 211.92 305.577C211.509 305.81 211.029 305.955 210.477 306.015V307.375H209.39V306.015C208.843 305.955 208.347 305.805 207.9 305.563C207.454 305.322 207.093 304.969 206.82 304.504C206.547 304.035 206.41 303.449 206.41 302.747H208.474C208.474 303.33 208.611 303.752 208.884 304.012C209.158 304.267 209.504 304.395 209.924 304.395C210.32 304.395 210.623 304.292 210.833 304.087C211.042 303.877 211.147 303.604 211.147 303.267C211.147 303.016 211.102 302.806 211.01 302.638C210.924 302.465 210.783 302.312 210.587 302.18C210.395 302.048 210.129 301.915 209.787 301.783C209.103 301.519 208.552 301.259 208.133 301.004C207.713 300.744 207.383 300.421 207.141 300.033C206.9 299.646 206.779 299.163 206.779 298.584C206.779 298.074 206.893 297.62 207.121 297.224C207.349 296.827 207.67 296.508 208.085 296.267C208.499 296.025 208.98 295.877 209.527 295.822V294.366H210.614V295.843C211.143 295.92 211.603 296.096 211.995 296.369C212.387 296.643 212.688 297.005 212.897 297.456C213.111 297.907 213.218 298.429 213.218 299.021H211.161C211.161 298.502 211.054 298.11 210.84 297.846C210.625 297.581 210.334 297.449 209.965 297.449C209.591 297.449 209.311 297.556 209.124 297.771C208.937 297.98 208.843 298.256 208.843 298.598C208.843 298.821 208.884 299.012 208.967 299.172C209.053 299.331 209.194 299.479 209.39 299.616C209.586 299.753 209.862 299.892 210.217 300.033ZM221.237 303.759H220.144V305.898H218.079V303.759H214.06L213.957 302.453L218.065 295.945H219.699H220.144V302.098H221.237V303.759ZM218.079 302.098V298.741L217.942 298.98L215.98 302.098H218.079ZM224.82 305.898V298.379L222.482 299.083V297.422L226.665 295.938H226.877V305.898H224.82ZM231.116 303.786C231.344 303.786 231.546 303.834 231.724 303.93C231.902 304.025 232.039 304.158 232.134 304.326C232.23 304.49 232.278 304.675 232.278 304.88C232.278 305.085 232.23 305.272 232.134 305.44C232.039 305.604 231.902 305.734 231.724 305.83C231.546 305.926 231.344 305.974 231.116 305.974C230.888 305.974 230.685 305.926 230.507 305.83C230.334 305.734 230.2 305.604 230.104 305.44C230.008 305.272 229.961 305.085 229.961 304.88C229.961 304.675 230.008 304.49 230.104 304.326C230.2 304.158 230.334 304.025 230.507 303.93C230.685 303.834 230.888 303.786 231.116 303.786ZM233.611 305.898V304.483L236.831 301.079C237.287 300.573 237.61 300.147 237.802 299.801C237.998 299.45 238.096 299.133 238.096 298.851C238.096 298.413 237.986 298.074 237.767 297.832C237.553 297.586 237.248 297.463 236.851 297.463C236.569 297.463 236.323 297.534 236.113 297.675C235.908 297.816 235.751 298.012 235.641 298.263C235.532 298.509 235.477 298.789 235.477 299.104H233.413C233.413 298.497 233.556 297.944 233.844 297.442C234.131 296.937 234.539 296.538 235.067 296.246C235.596 295.95 236.204 295.802 236.892 295.802C237.594 295.802 238.189 295.916 238.677 296.144C239.164 296.367 239.533 296.693 239.784 297.121C240.035 297.545 240.16 298.055 240.16 298.652C240.16 299.085 240.071 299.505 239.893 299.91C239.72 300.316 239.474 300.721 239.155 301.127C238.841 301.528 238.428 301.993 237.918 302.521L236.277 304.237H240.461V305.898H233.611ZM242.218 295.945H247.858V297.641H243.906L243.667 299.726C243.831 299.63 244.045 299.543 244.31 299.466C244.574 299.388 244.852 299.35 245.144 299.35C245.786 299.35 246.335 299.482 246.791 299.746C247.247 300.01 247.593 300.393 247.83 300.895C248.072 301.396 248.192 301.997 248.192 302.699C248.192 303.301 248.065 303.854 247.81 304.36C247.559 304.866 247.178 305.272 246.668 305.577C246.162 305.882 245.54 306.035 244.802 306.035C244.214 306.035 243.663 305.917 243.148 305.68C242.633 305.443 242.213 305.103 241.89 304.661C241.571 304.215 241.407 303.695 241.398 303.103H243.448C243.485 303.499 243.622 303.811 243.859 304.039C244.1 304.262 244.412 304.374 244.795 304.374C245.255 304.374 245.593 304.21 245.807 303.882C246.021 303.549 246.128 303.112 246.128 302.569C246.128 302.041 245.998 301.628 245.738 301.332C245.483 301.031 245.096 300.881 244.576 300.881C244.257 300.881 244 300.929 243.804 301.024C243.612 301.12 243.437 301.25 243.277 301.414L241.637 301.011L242.218 295.945ZM252.54 301.988L251.495 303.123V305.898H249.348V295.945H251.495V300.409L252.376 299.158L254.81 295.945H257.449L253.969 300.368L257.524 305.898H254.981L252.54 301.988ZM260.218 306.753L263.813 295.945H265.331L261.728 306.753H260.218ZM274.765 295.945H277.103L273.849 302.303V305.898H271.675V302.303L268.421 295.945H270.759L272.762 300.368L274.765 295.945ZM284.404 304.169V305.898H279.134H277.684V295.945H279.831H284.397V297.682H279.831V299.944H283.721V301.619H279.831V304.169H284.404ZM290.919 303.923H287.392L286.742 305.898H284.459L288.15 295.945H289.6H290.147L293.858 305.898H291.568L290.919 303.923ZM290.345 302.187L289.149 298.557L287.959 302.187H290.345ZM302.287 305.796V305.898H299.991L298.159 302.303H296.607V305.898H294.46V295.945H298.22C298.99 295.945 299.651 296.062 300.202 296.294C300.758 296.522 301.185 296.861 301.481 297.312C301.777 297.759 301.925 298.306 301.925 298.953C301.925 299.66 301.772 300.238 301.467 300.689C301.162 301.136 300.724 301.489 300.155 301.749L302.287 305.796ZM296.607 300.566H298.22C298.73 300.566 299.118 300.439 299.382 300.184C299.647 299.928 299.779 299.577 299.779 299.131C299.779 298.675 299.647 298.32 299.382 298.064C299.122 297.809 298.735 297.682 298.22 297.682H296.607V300.566ZM306.376 301.852C306.376 300.644 306.542 299.555 306.875 298.584C307.212 297.613 307.641 296.813 308.16 296.185C308.684 295.556 309.226 295.118 309.787 294.872L310.177 295.966C309.803 296.244 309.459 296.638 309.144 297.148C308.835 297.654 308.582 298.301 308.386 299.09C308.19 299.878 308.092 300.794 308.092 301.838V302.036C308.092 303.08 308.19 303.996 308.386 304.784C308.582 305.573 308.835 306.22 309.144 306.726C309.459 307.236 309.803 307.632 310.177 307.915L309.787 308.995C309.226 308.754 308.684 308.318 308.16 307.689C307.641 307.061 307.212 306.261 306.875 305.29C306.542 304.315 306.376 303.226 306.376 302.022V301.852ZM313.65 305.898V298.379L311.312 299.083V297.422L315.495 295.938H315.707V305.898H313.65ZM321.6 305.898H319.426L323.241 297.606H318.346V295.945H325.415V297.094L321.6 305.898ZM326.358 297.859C326.358 297.477 326.442 297.13 326.611 296.82C326.78 296.506 327.028 296.257 327.356 296.075C327.684 295.893 328.076 295.802 328.532 295.802C328.997 295.802 329.391 295.893 329.715 296.075C330.043 296.257 330.289 296.506 330.453 296.82C330.622 297.13 330.706 297.477 330.706 297.859V298.386C330.706 298.764 330.624 299.108 330.46 299.418C330.296 299.728 330.05 299.974 329.721 300.156C329.398 300.339 329.006 300.43 328.546 300.43C328.085 300.43 327.689 300.339 327.356 300.156C327.028 299.974 326.78 299.728 326.611 299.418C326.442 299.108 326.358 298.764 326.358 298.386V297.859ZM327.951 304.627L332.811 296.848L333.809 297.374L328.949 305.153L327.951 304.627ZM327.719 298.386C327.719 298.627 327.789 298.832 327.93 299.001C328.076 299.165 328.281 299.247 328.546 299.247C328.805 299.247 329.004 299.165 329.14 299.001C329.282 298.832 329.352 298.627 329.352 298.386V297.859C329.352 297.613 329.282 297.406 329.14 297.237C328.999 297.069 328.796 296.984 328.532 296.984C328.272 296.984 328.072 297.069 327.93 297.237C327.789 297.406 327.719 297.613 327.719 297.859V298.386ZM331.109 303.458C331.109 303.08 331.193 302.736 331.362 302.426C331.531 302.111 331.779 301.863 332.107 301.681C332.435 301.498 332.827 301.407 333.283 301.407C333.748 301.407 334.144 301.498 334.472 301.681C334.801 301.863 335.047 302.109 335.211 302.419C335.379 302.729 335.464 303.075 335.464 303.458V303.984C335.464 304.367 335.382 304.714 335.218 305.023C335.053 305.333 334.807 305.579 334.479 305.762C334.151 305.944 333.757 306.035 333.297 306.035C332.836 306.035 332.44 305.944 332.107 305.762C331.779 305.579 331.531 305.333 331.362 305.023C331.193 304.714 331.109 304.367 331.109 303.984V303.458ZM332.469 303.984C332.469 304.221 332.547 304.426 332.702 304.6C332.857 304.768 333.055 304.853 333.297 304.853C333.597 304.853 333.807 304.775 333.926 304.62C334.044 304.461 334.103 304.249 334.103 303.984V303.458C334.103 303.212 334.033 303.007 333.891 302.843C333.75 302.674 333.547 302.59 333.283 302.59C333.023 302.59 332.823 302.674 332.681 302.843C332.54 303.007 332.469 303.212 332.469 303.458V303.984ZM339.996 302.022C339.996 303.185 339.823 304.253 339.477 305.229C339.13 306.204 338.686 307.015 338.144 307.662C337.601 308.314 337.045 308.758 336.476 308.995L336.072 307.915C336.446 307.637 336.788 307.243 337.098 306.732C337.412 306.227 337.667 305.579 337.863 304.791C338.064 303.998 338.164 303.08 338.164 302.036V301.838C338.164 300.794 338.064 299.878 337.863 299.09C337.663 298.301 337.405 297.652 337.091 297.142C336.781 296.631 336.441 296.237 336.072 295.959L336.476 294.872C337.045 295.114 337.601 295.56 338.144 296.212C338.686 296.859 339.13 297.67 339.477 298.646C339.823 299.621 339.996 300.689 339.996 301.852V302.022Z" fill="white"/>
<path d="M14.3638 298.707V300.816H17.7212V302.293H14.3638V305.75H12.5239V297.219H14.3638H18.1255V298.707H14.3638ZM25.3796 302.826C25.3796 303.471 25.241 304.021 24.9636 304.479C24.6863 304.936 24.2996 305.281 23.8035 305.516C23.3113 305.75 22.741 305.867 22.0925 305.867C21.4402 305.867 20.864 305.75 20.364 305.516C19.8679 305.281 19.4812 304.936 19.2038 304.479C18.9265 304.021 18.7878 303.471 18.7878 302.826V297.219H20.6335V302.826C20.6335 303.865 21.1199 304.385 22.0925 304.385C22.5652 304.385 22.9246 304.26 23.1706 304.01C23.4167 303.756 23.5398 303.361 23.5398 302.826V297.219H25.3796V302.826ZM33.0381 298.707H30.4365V305.75H28.6025V298.707H26.042V297.219H30.4365H33.0381V298.707ZM40.2863 302.826C40.2863 303.471 40.1477 304.021 39.8703 304.479C39.593 304.936 39.2063 305.281 38.7102 305.516C38.218 305.75 37.6477 305.867 36.9992 305.867C36.3469 305.867 35.7707 305.75 35.2707 305.516C34.7746 305.281 34.3879 304.936 34.1106 304.479C33.8332 304.021 33.6946 303.471 33.6946 302.826V297.219H35.5403V302.826C35.5403 303.865 36.0266 304.385 36.9992 304.385C37.4719 304.385 37.8313 304.26 38.0774 304.01C38.3235 303.756 38.4465 303.361 38.4465 302.826V297.219H40.2863V302.826ZM48.1557 305.662V305.75H46.187L44.6167 302.668H43.2866V305.75H41.4467V297.219H44.6694C45.3296 297.219 45.896 297.318 46.3686 297.518C46.8452 297.713 47.2104 298.004 47.4643 298.391C47.7182 298.773 47.8452 299.242 47.8452 299.797C47.8452 300.402 47.7143 300.898 47.4526 301.285C47.1909 301.668 46.8159 301.971 46.3276 302.193L48.1557 305.662ZM43.2866 301.18H44.6694C45.1069 301.18 45.4389 301.07 45.6655 300.852C45.8921 300.633 46.0053 300.332 46.0053 299.949C46.0053 299.559 45.8921 299.254 45.6655 299.035C45.4428 298.816 45.1108 298.707 44.6694 298.707H43.2866V301.18ZM54.6774 304.268V305.75H50.1599H48.9177V297.219H50.7575H54.6716V298.707H50.7575V300.646H54.0915V302.082H50.7575V304.268H54.6774ZM63.1857 301.367C63.6584 301.488 64.0099 301.721 64.2404 302.064C64.4709 302.404 64.5861 302.793 64.5861 303.23C64.5861 304.059 64.3205 304.686 63.7892 305.111C63.258 305.537 62.4865 305.75 61.4748 305.75H58.8791H58.176V297.219H61.1877C62.215 297.219 63.006 297.414 63.5607 297.805C64.1193 298.195 64.3986 298.781 64.3986 299.562C64.3986 299.969 64.2971 300.332 64.0939 300.652C63.8947 300.969 63.592 301.207 63.1857 301.367ZM60.0158 298.707V300.781H61.1877C61.6525 300.781 61.9963 300.697 62.2189 300.529C62.4455 300.357 62.5588 300.104 62.5588 299.768C62.5588 299.393 62.4494 299.123 62.2306 298.959C62.0158 298.791 61.6681 298.707 61.1877 298.707H60.0158ZM61.4748 304.268C61.8967 304.268 62.215 304.172 62.4299 303.98C62.6447 303.785 62.7521 303.529 62.7521 303.213C62.7521 302.447 62.3517 302.064 61.551 302.064H60.0158V304.268H61.4748ZM65.7406 305.75V297.219H67.5746V305.75H65.7406ZM74.4538 304.268V305.75H70.1647H68.9225V297.219H70.7624V304.268H74.4538ZM80.7177 304.268V305.75H76.4286H75.1864V297.219H77.0263V304.268H80.7177Z" fill="#BED0F7"/>
<line opacity="0.2" x1="13" y1="278.5" x2="340" y2="278.5" stroke="white"/>
<path d="M16.2144 232.635C16.8888 232.908 17.4334 233.177 17.8481 233.441C18.2674 233.701 18.5978 234.025 18.8394 234.412C19.0809 234.799 19.2017 235.28 19.2017 235.854C19.2017 236.383 19.09 236.843 18.8667 237.235C18.6434 237.627 18.3267 237.942 17.9165 238.179C17.5063 238.411 17.0256 238.557 16.4741 238.616V239.977H15.3872V238.616C14.8403 238.557 14.3436 238.407 13.897 238.165C13.4504 237.924 13.0903 237.57 12.8169 237.105C12.5435 236.636 12.4067 236.05 12.4067 235.349H14.4712C14.4712 235.932 14.6079 236.354 14.8813 236.613C15.1548 236.868 15.5011 236.996 15.9204 236.996C16.3169 236.996 16.62 236.894 16.8296 236.688C17.0392 236.479 17.144 236.205 17.144 235.868C17.144 235.618 17.0985 235.408 17.0073 235.239C16.9207 235.066 16.7795 234.913 16.5835 234.781C16.3921 234.649 16.1255 234.517 15.7837 234.385C15.1001 234.12 14.5487 233.861 14.1294 233.605C13.7101 233.346 13.3797 233.022 13.1382 232.635C12.8966 232.247 12.7759 231.764 12.7759 231.186C12.7759 230.675 12.8898 230.222 13.1177 229.825C13.3455 229.429 13.6668 229.11 14.0815 228.868C14.4963 228.627 14.9771 228.479 15.5239 228.424V226.968H16.6108V228.444C17.1395 228.522 17.5998 228.697 17.9917 228.971C18.3836 229.244 18.6844 229.606 18.894 230.058C19.1082 230.509 19.2153 231.031 19.2153 231.623H17.1577C17.1577 231.104 17.0506 230.712 16.8364 230.447C16.6222 230.183 16.3306 230.051 15.9614 230.051C15.5877 230.051 15.3075 230.158 15.1206 230.372C14.9338 230.582 14.8403 230.857 14.8403 231.199C14.8403 231.423 14.8813 231.614 14.9634 231.773C15.05 231.933 15.1912 232.081 15.3872 232.218C15.5832 232.354 15.8589 232.493 16.2144 232.635ZM23.5154 228.403C24.1853 228.403 24.7778 228.57 25.2928 228.902C25.8077 229.23 26.2065 229.702 26.489 230.317C26.7762 230.933 26.9197 231.65 26.9197 232.471V233.202C26.9197 234.323 26.7192 235.289 26.3181 236.101C25.9217 236.912 25.3406 237.534 24.575 237.967C23.8094 238.4 22.8842 238.616 21.7996 238.616H21.6424V236.887H21.7722C22.7247 236.887 23.4516 236.695 23.9529 236.312C24.4542 235.93 24.7459 235.346 24.8279 234.562C24.5864 234.79 24.3129 234.97 24.0076 235.103C23.7068 235.23 23.3901 235.294 23.0574 235.294C22.4513 235.294 21.9295 235.153 21.492 234.87C21.0545 234.583 20.7195 234.187 20.4871 233.681C20.2592 233.175 20.1453 232.594 20.1453 231.938C20.1453 231.29 20.2866 230.698 20.5691 230.16C20.8517 229.622 21.2482 229.196 21.7586 228.882C22.269 228.563 22.8546 228.403 23.5154 228.403ZM23.5769 233.722C23.8686 233.722 24.1238 233.649 24.3426 233.503C24.5659 233.357 24.7368 233.17 24.8553 232.942V232.088C24.8553 231.432 24.7322 230.933 24.4861 230.591C24.24 230.244 23.9142 230.071 23.5086 230.071C23.2443 230.071 23.0118 230.16 22.8113 230.338C22.6153 230.511 22.465 230.739 22.3601 231.021C22.2553 231.304 22.2029 231.605 22.2029 231.924C22.2029 232.448 22.3214 232.879 22.5584 233.216C22.7954 233.553 23.1349 233.722 23.5769 233.722ZM28.834 228.547H34.4737V230.242H30.5225L30.2833 232.327C30.4473 232.231 30.6615 232.145 30.9258 232.067C31.1902 231.99 31.4682 231.951 31.7598 231.951C32.4024 231.951 32.9516 232.083 33.4073 232.348C33.863 232.612 34.2094 232.995 34.4463 233.496C34.6879 233.997 34.8087 234.599 34.8087 235.301C34.8087 235.902 34.681 236.456 34.4258 236.962C34.1752 237.468 33.7947 237.873 33.2842 238.179C32.7784 238.484 32.1563 238.637 31.418 238.637C30.8301 238.637 30.2787 238.518 29.7637 238.281C29.2488 238.044 28.8295 237.705 28.5059 237.263C28.1869 236.816 28.0228 236.297 28.0137 235.704H30.0645C30.101 236.101 30.2377 236.413 30.4747 236.641C30.7162 236.864 31.0284 236.976 31.4112 236.976C31.8715 236.976 32.2087 236.812 32.4229 236.483C32.6371 236.151 32.7442 235.713 32.7442 235.171C32.7442 234.642 32.6143 234.23 32.3546 233.934C32.0993 233.633 31.712 233.482 31.1924 233.482C30.8734 233.482 30.6159 233.53 30.42 233.626C30.2286 233.722 30.0531 233.852 29.8936 234.016L28.253 233.612L28.834 228.547ZM39.1566 234.59L38.1107 235.725V238.5H35.9642V228.547H38.1107V233.011L38.9925 231.76L41.4261 228.547H44.0648L40.5853 232.97L44.14 238.5H41.597L39.1566 234.59ZM46.8339 239.354L50.4296 228.547H51.9472L48.3446 239.354H46.8339ZM61.3813 228.547H63.7192L60.4653 234.904V238.5H58.2915V234.904L55.0376 228.547H57.3755L59.3784 232.97L61.3813 228.547ZM71.0203 236.771V238.5H65.7497H64.3005V228.547H66.447H71.0134V230.283H66.447V232.546H70.3367V234.221H66.447V236.771H71.0203ZM77.5352 236.524H74.0078L73.3584 238.5H71.0752L74.7666 228.547H76.2158H76.7627L80.4746 238.5H78.1846L77.5352 236.524ZM76.961 234.788L75.7647 231.158L74.5752 234.788H76.961ZM88.9036 238.397V238.5H86.6067L84.7747 234.904H83.2229V238.5H81.0765V228.547H84.8362C85.6064 228.547 86.2672 228.663 86.8186 228.896C87.3746 229.123 87.8007 229.463 88.097 229.914C88.3932 230.361 88.5413 230.908 88.5413 231.555C88.5413 232.261 88.3886 232.84 88.0833 233.291C87.778 233.738 87.3405 234.091 86.7708 234.351L88.9036 238.397ZM83.2229 233.168H84.8362C85.3466 233.168 85.734 233.04 85.9983 232.785C86.2627 232.53 86.3948 232.179 86.3948 231.732C86.3948 231.277 86.2627 230.921 85.9983 230.666C85.7386 230.411 85.3512 230.283 84.8362 230.283H83.2229V233.168Z" fill="white"/>
<path d="M19.2798 221.297C19.2407 221.883 19.0786 222.4 18.7935 222.85C18.5122 223.299 18.1177 223.648 17.6099 223.898C17.1021 224.148 16.5063 224.273 15.8228 224.273C15.0923 224.273 14.4595 224.107 13.9243 223.775C13.3892 223.439 12.979 222.963 12.6938 222.346C12.4126 221.725 12.272 220.994 12.272 220.154V219.633C12.272 218.797 12.4185 218.068 12.7114 217.447C13.0044 216.822 13.4185 216.342 13.9536 216.006C14.4888 215.67 15.1138 215.502 15.8286 215.502C16.5278 215.502 17.1274 215.631 17.6274 215.889C18.1274 216.146 18.5142 216.504 18.7876 216.961C19.0649 217.414 19.231 217.939 19.2856 218.537H17.4517C17.4165 218.021 17.2739 217.639 17.0239 217.389C16.7778 217.135 16.3794 217.008 15.8286 217.008C15.2544 217.008 14.8286 217.219 14.5513 217.641C14.2739 218.062 14.1353 218.723 14.1353 219.621V220.154C14.1353 220.76 14.1919 221.254 14.3052 221.637C14.4185 222.016 14.5981 222.299 14.8442 222.486C15.0903 222.674 15.4165 222.768 15.8228 222.768C16.3501 222.768 16.7427 222.648 17.0005 222.41C17.2622 222.168 17.4106 221.797 17.4458 221.297H19.2798ZM26.6687 221.232C26.6687 221.877 26.53 222.428 26.2527 222.885C25.9753 223.342 25.5886 223.688 25.0925 223.922C24.6003 224.156 24.03 224.273 23.3816 224.273C22.7292 224.273 22.1531 224.156 21.6531 223.922C21.157 223.688 20.7703 223.342 20.4929 222.885C20.2156 222.428 20.0769 221.877 20.0769 221.232V215.625H21.9226V221.232C21.9226 222.271 22.4089 222.791 23.3816 222.791C23.8542 222.791 24.2136 222.666 24.4597 222.416C24.7058 222.162 24.8288 221.768 24.8288 221.232V215.625H26.6687V221.232ZM34.5381 224.068V224.156H32.5693L30.999 221.074H29.6689V224.156H27.8291V215.625H31.0517C31.7119 215.625 32.2783 215.725 32.751 215.924C33.2275 216.119 33.5928 216.41 33.8467 216.797C34.1006 217.18 34.2275 217.648 34.2275 218.203C34.2275 218.809 34.0967 219.305 33.8349 219.691C33.5732 220.074 33.1982 220.377 32.7099 220.6L34.5381 224.068ZM29.6689 219.586H31.0517C31.4892 219.586 31.8213 219.477 32.0478 219.258C32.2744 219.039 32.3877 218.738 32.3877 218.355C32.3877 217.965 32.2744 217.66 32.0478 217.441C31.8252 217.223 31.4931 217.113 31.0517 217.113H29.6689V219.586ZM42.009 224.068V224.156H40.0403L38.4699 221.074H37.1399V224.156H35.3V215.625H38.5227C39.1828 215.625 39.7492 215.725 40.2219 215.924C40.6985 216.119 41.0637 216.41 41.3176 216.797C41.5715 217.18 41.6985 217.648 41.6985 218.203C41.6985 218.809 41.5676 219.305 41.3059 219.691C41.0442 220.074 40.6692 220.377 40.1809 220.6L42.009 224.068ZM37.1399 219.586H38.5227C38.9602 219.586 39.2922 219.477 39.5188 219.258C39.7453 219.039 39.8586 218.738 39.8586 218.355C39.8586 217.965 39.7453 217.66 39.5188 217.441C39.2961 217.223 38.9641 217.113 38.5227 217.113H37.1399V219.586ZM48.5307 222.674V224.156H44.0131H42.771V215.625H44.6108H48.5249V217.113H44.6108V219.053H47.9448V220.488H44.6108V222.674H48.5307ZM54.4372 224.156L51.1208 218.654V224.156H49.281V215.625H51.1208L54.4372 221.127V215.625H56.2712V224.156H54.4372ZM64.0117 217.113H61.4101V224.156H59.5761V217.113H57.0156V215.625H61.4101H64.0117V217.113ZM67.393 224.156V215.625H69.227V224.156H67.393ZM75.7311 224.156L72.4147 218.654V224.156H70.5749V215.625H72.4147L75.7311 221.127V215.625H77.5651V224.156H75.7311ZM85.5634 221.297C85.5243 221.883 85.3622 222.4 85.077 222.85C84.7958 223.299 84.4013 223.648 83.8935 223.898C83.3856 224.148 82.7899 224.273 82.1063 224.273C81.3759 224.273 80.7431 224.107 80.2079 223.775C79.6728 223.439 79.2626 222.963 78.9774 222.346C78.6962 221.725 78.5556 220.994 78.5556 220.154V219.633C78.5556 218.797 78.702 218.068 78.995 217.447C79.288 216.822 79.702 216.342 80.2372 216.006C80.7724 215.67 81.3974 215.502 82.1122 215.502C82.8114 215.502 83.411 215.631 83.911 215.889C84.411 216.146 84.7978 216.504 85.0712 216.961C85.3485 217.414 85.5145 217.939 85.5692 218.537H83.7353C83.7001 218.021 83.5575 217.639 83.3075 217.389C83.0614 217.135 82.663 217.008 82.1122 217.008C81.538 217.008 81.1122 217.219 80.8349 217.641C80.5575 218.062 80.4188 218.723 80.4188 219.621V220.154C80.4188 220.76 80.4755 221.254 80.5888 221.637C80.702 222.016 80.8817 222.299 81.1278 222.486C81.3739 222.674 81.7001 222.768 82.1063 222.768C82.6337 222.768 83.0263 222.648 83.2841 222.41C83.5458 222.168 83.6942 221.797 83.7294 221.297H85.5634ZM93.4972 220.078C93.4972 220.93 93.3429 221.672 93.0343 222.305C92.7296 222.938 92.3019 223.424 91.7511 223.764C91.2003 224.104 90.5656 224.273 89.8468 224.273C89.1281 224.273 88.4913 224.104 87.9367 223.764C87.382 223.424 86.9503 222.938 86.6417 222.305C86.3331 221.672 86.1788 220.93 86.1788 220.078V219.709C86.1788 218.857 86.3331 218.115 86.6417 217.482C86.9503 216.846 87.38 216.357 87.9308 216.018C88.4816 215.678 89.1163 215.508 89.8351 215.508C90.5538 215.508 91.1886 215.678 91.7394 216.018C92.2941 216.357 92.7257 216.846 93.0343 217.482C93.3429 218.115 93.4972 218.857 93.4972 219.709V220.078ZM91.6339 219.697C91.6339 218.83 91.4777 218.168 91.1652 217.711C90.8527 217.25 90.4093 217.02 89.8351 217.02C89.257 217.02 88.8136 217.248 88.505 217.705C88.1964 218.162 88.0421 218.826 88.0421 219.697V220.078C88.0421 220.941 88.1984 221.605 88.5109 222.07C88.8234 222.535 89.2687 222.768 89.8468 222.768C90.421 222.768 90.8624 222.535 91.171 222.07C91.4796 221.605 91.6339 220.941 91.6339 220.078V219.697ZM103.517 224.156H101.671V221.953L101.853 217.875L99.6146 224.156H98.3666L96.1342 217.875L96.3158 221.953V224.156H94.476V215.625H96.0346H96.8842L98.9935 221.713L101.103 215.625H103.517V224.156ZM110.519 222.674V224.156H106.002H104.759V215.625H106.599H110.513V217.113H106.599V219.053H109.933V220.488H106.599V222.674H110.519Z" fill="#BED0F7"/>
<rect opacity="0.6" x="12" y="255" width="328" height="4" rx="2" fill="white"/>
<rect x="120.401" y="255.336" width="103.438" height="4" rx="2" fill="url(#paint0_linear)"/>
<ellipse cx="229.893" cy="256.991" rx="9" ry="8.59214" fill="#65D6AD"/>
<ellipse cx="112.401" cy="256.991" rx="9" ry="8.59214" fill="white"/>
<path d="M259.35 232.635C260.024 232.908 260.569 233.177 260.984 233.441C261.403 233.701 261.733 234.025 261.975 234.412C262.216 234.799 262.337 235.28 262.337 235.854C262.337 236.383 262.225 236.843 262.002 237.235C261.779 237.627 261.462 237.942 261.052 238.179C260.642 238.411 260.161 238.557 259.61 238.616V239.977H258.523V238.616C257.976 238.557 257.479 238.407 257.032 238.165C256.586 237.924 256.226 237.57 255.952 237.105C255.679 236.636 255.542 236.05 255.542 235.349H257.607C257.607 235.932 257.743 236.354 258.017 236.613C258.29 236.868 258.637 236.996 259.056 236.996C259.452 236.996 259.755 236.894 259.965 236.688C260.175 236.479 260.279 236.205 260.279 235.868C260.279 235.618 260.234 235.408 260.143 235.239C260.056 235.066 259.915 234.913 259.719 234.781C259.528 234.649 259.261 234.517 258.919 234.385C258.236 234.12 257.684 233.861 257.265 233.605C256.846 233.346 256.515 233.022 256.274 232.635C256.032 232.247 255.911 231.764 255.911 231.186C255.911 230.675 256.025 230.222 256.253 229.825C256.481 229.429 256.802 229.11 257.217 228.868C257.632 228.627 258.112 228.479 258.659 228.424V226.968H259.746V228.444C260.275 228.522 260.735 228.697 261.127 228.971C261.519 229.244 261.82 229.606 262.029 230.058C262.244 230.509 262.351 231.031 262.351 231.623H260.293C260.293 231.104 260.186 230.712 259.972 230.447C259.758 230.183 259.466 230.051 259.097 230.051C258.723 230.051 258.443 230.158 258.256 230.372C258.069 230.582 257.976 230.857 257.976 231.199C257.976 231.423 258.017 231.614 258.099 231.773C258.185 231.933 258.327 232.081 258.523 232.218C258.719 232.354 258.994 232.493 259.35 232.635ZM266.179 238.5V230.98L263.841 231.685V230.023L268.025 228.54H268.237V238.5H266.179ZM271.135 238.5V237.085L274.355 233.681C274.811 233.175 275.135 232.749 275.326 232.402C275.522 232.051 275.62 231.735 275.62 231.452C275.62 231.015 275.51 230.675 275.292 230.434C275.078 230.188 274.772 230.064 274.376 230.064C274.093 230.064 273.847 230.135 273.637 230.276C273.432 230.418 273.275 230.614 273.166 230.864C273.056 231.11 273.002 231.391 273.002 231.705H270.937C270.937 231.099 271.081 230.545 271.368 230.044C271.655 229.538 272.063 229.139 272.592 228.848C273.12 228.551 273.729 228.403 274.417 228.403C275.119 228.403 275.713 228.517 276.201 228.745C276.689 228.968 277.058 229.294 277.308 229.723C277.559 230.146 277.684 230.657 277.684 231.254C277.684 231.687 277.595 232.106 277.418 232.512C277.245 232.917 276.998 233.323 276.679 233.729C276.365 234.13 275.953 234.594 275.442 235.123L273.801 236.839H277.985V238.5H271.135ZM279.742 228.547H285.382V230.242H281.431L281.191 232.327C281.355 232.231 281.57 232.145 281.834 232.067C282.098 231.99 282.376 231.951 282.668 231.951C283.311 231.951 283.86 232.083 284.315 232.348C284.771 232.612 285.118 232.995 285.355 233.496C285.596 233.997 285.717 234.599 285.717 235.301C285.717 235.902 285.589 236.456 285.334 236.962C285.083 237.468 284.703 237.873 284.192 238.179C283.687 238.484 283.064 238.637 282.326 238.637C281.738 238.637 281.187 238.518 280.672 238.281C280.157 238.044 279.738 237.705 279.414 237.263C279.095 236.816 278.931 236.297 278.922 235.704H280.973C281.009 236.101 281.146 236.413 281.383 236.641C281.624 236.864 281.937 236.976 282.319 236.976C282.78 236.976 283.117 236.812 283.331 236.483C283.545 236.151 283.652 235.713 283.652 235.171C283.652 234.642 283.522 234.23 283.263 233.934C283.007 233.633 282.62 233.482 282.101 233.482C281.782 233.482 281.524 233.53 281.328 233.626C281.137 233.722 280.961 233.852 280.802 234.016L279.161 233.612L279.742 228.547ZM290.065 234.59L289.019 235.725V238.5H286.872V228.547H289.019V233.011L289.901 231.76L292.334 228.547H294.973L291.493 232.97L295.048 238.5H292.505L290.065 234.59ZM297.742 239.354L301.338 228.547H302.855L299.253 239.354H297.742ZM312.289 228.547H314.627L311.373 234.904V238.5H309.2V234.904L305.946 228.547H308.284L310.287 232.97L312.289 228.547ZM321.928 236.771V238.5H316.658H315.209V228.547H317.355H321.922V230.283H317.355V232.546H321.245V234.221H317.355V236.771H321.928ZM328.443 236.524H324.916L324.267 238.5H321.983L325.675 228.547H327.124H327.671L331.383 238.5H329.093L328.443 236.524ZM327.869 234.788L326.673 231.158L325.483 234.788H327.869ZM339.812 238.397V238.5H337.515L335.683 234.904H334.131V238.5H331.985V228.547H335.744C336.515 228.547 337.175 228.663 337.727 228.896C338.283 229.123 338.709 229.463 339.005 229.914C339.301 230.361 339.449 230.908 339.449 231.555C339.449 232.261 339.297 232.84 338.991 233.291C338.686 233.738 338.249 234.091 337.679 234.351L339.812 238.397ZM334.131 233.168H335.744C336.255 233.168 336.642 233.04 336.906 232.785C337.171 232.53 337.303 232.179 337.303 231.732C337.303 231.277 337.171 230.921 336.906 230.666C336.647 230.411 336.259 230.283 335.744 230.283H334.131V233.168Z" fill="white"/>
<path d="M252.052 217.113V219.223H255.409V220.699H252.052V224.156H250.212V215.625H252.052H255.814V217.113H252.052ZM263.068 221.232C263.068 221.877 262.929 222.428 262.652 222.885C262.375 223.342 261.988 223.688 261.492 223.922C261 224.156 260.429 224.273 259.781 224.273C259.128 224.273 258.552 224.156 258.052 223.922C257.556 223.688 257.169 223.342 256.892 222.885C256.615 222.428 256.476 221.877 256.476 221.232V215.625H258.322V221.232C258.322 222.271 258.808 222.791 259.781 222.791C260.253 222.791 260.613 222.666 260.859 222.416C261.105 222.162 261.228 221.768 261.228 221.232V215.625H263.068V221.232ZM270.726 217.113H268.125V224.156H266.291V217.113H263.73V215.625H268.125H270.726V217.113ZM277.975 221.232C277.975 221.877 277.836 222.428 277.559 222.885C277.281 223.342 276.895 223.688 276.398 223.922C275.906 224.156 275.336 224.273 274.688 224.273C274.035 224.273 273.459 224.156 272.959 223.922C272.463 223.688 272.076 223.342 271.799 222.885C271.522 222.428 271.383 221.877 271.383 221.232V215.625H273.229V221.232C273.229 222.271 273.715 222.791 274.688 222.791C275.16 222.791 275.52 222.666 275.766 222.416C276.012 222.162 276.135 221.768 276.135 221.232V215.625H277.975V221.232ZM285.844 224.068V224.156H283.875L282.305 221.074H280.975V224.156H279.135V215.625H282.358C283.018 215.625 283.584 215.725 284.057 215.924C284.533 216.119 284.899 216.41 285.153 216.797C285.407 217.18 285.533 217.648 285.533 218.203C285.533 218.809 285.403 219.305 285.141 219.691C284.879 220.074 284.504 220.377 284.016 220.6L285.844 224.068ZM280.975 219.586H282.358C282.795 219.586 283.127 219.477 283.354 219.258C283.58 219.039 283.694 218.738 283.694 218.355C283.694 217.965 283.58 217.66 283.354 217.441C283.131 217.223 282.799 217.113 282.358 217.113H280.975V219.586ZM292.366 222.674V224.156H287.848H286.606V215.625H288.446H292.36V217.113H288.446V219.053H291.78V220.488H288.446V222.674H292.366ZM295.981 224.156V215.625H297.815V224.156H295.981ZM304.32 224.156L301.003 218.654V224.156H299.163V215.625H301.003L304.32 221.127V215.625H306.154V224.156H304.32ZM314.152 221.297C314.113 221.883 313.951 222.4 313.665 222.85C313.384 223.299 312.99 223.648 312.482 223.898C311.974 224.148 311.378 224.273 310.695 224.273C309.964 224.273 309.332 224.107 308.796 223.775C308.261 223.439 307.851 222.963 307.566 222.346C307.285 221.725 307.144 220.994 307.144 220.154V219.633C307.144 218.797 307.29 218.068 307.583 217.447C307.876 216.822 308.29 216.342 308.826 216.006C309.361 215.67 309.986 215.502 310.701 215.502C311.4 215.502 311.999 215.631 312.499 215.889C312.999 216.146 313.386 216.504 313.66 216.961C313.937 217.414 314.103 217.939 314.158 218.537H312.324C312.289 218.021 312.146 217.639 311.896 217.389C311.65 217.135 311.251 217.008 310.701 217.008C310.126 217.008 309.701 217.219 309.423 217.641C309.146 218.062 309.007 218.723 309.007 219.621V220.154C309.007 220.76 309.064 221.254 309.177 221.637C309.29 222.016 309.47 222.299 309.716 222.486C309.962 222.674 310.289 222.768 310.695 222.768C311.222 222.768 311.615 222.648 311.873 222.41C312.134 222.168 312.283 221.797 312.318 221.297H314.152ZM322.086 220.078C322.086 220.93 321.931 221.672 321.623 222.305C321.318 222.938 320.89 223.424 320.34 223.764C319.789 224.104 319.154 224.273 318.435 224.273C317.716 224.273 317.08 224.104 316.525 223.764C315.97 223.424 315.539 222.938 315.23 222.305C314.922 221.672 314.767 220.93 314.767 220.078V219.709C314.767 218.857 314.922 218.115 315.23 217.482C315.539 216.846 315.968 216.357 316.519 216.018C317.07 215.678 317.705 215.508 318.424 215.508C319.142 215.508 319.777 215.678 320.328 216.018C320.883 216.357 321.314 216.846 321.623 217.482C321.931 218.115 322.086 218.857 322.086 219.709V220.078ZM320.222 219.697C320.222 218.83 320.066 218.168 319.754 217.711C319.441 217.25 318.998 217.02 318.424 217.02C317.845 217.02 317.402 217.248 317.093 217.705C316.785 218.162 316.631 218.826 316.631 219.697V220.078C316.631 220.941 316.787 221.605 317.099 222.07C317.412 222.535 317.857 222.768 318.435 222.768C319.009 222.768 319.451 222.535 319.759 222.07C320.068 221.605 320.222 220.941 320.222 220.078V219.697ZM332.105 224.156H330.26V221.953L330.441 217.875L328.203 224.156H326.955L324.723 217.875L324.904 221.953V224.156H323.064V215.625H324.623H325.473L327.582 221.713L329.691 215.625H332.105V224.156ZM339.108 222.674V224.156H334.59H333.348V215.625H335.188H339.102V217.113H335.188V219.053H338.522V220.488H335.188V222.674H339.108Z" fill="#BED0F7"/>
<rect width="20.5452" height="15.2794" rx="0.564382" transform="matrix(-1 0 0 1 33.2339 68.0133)" fill="#191D3C"/>
<rect width="20.5452" height="15.2794" rx="0.564382" transform="matrix(-1 0 0 1 58.7144 68.0133)" fill="#191D3C"/>
<rect width="20.5452" height="15.2794" rx="0.564382" transform="matrix(-1 0 0 1 84.1948 68.0133)" fill="#191D3C"/>
<rect width="20.5452" height="15.2794" rx="0.564382" transform="matrix(-1 0 0 1 109.675 68.0133)" fill="#191D3C"/>
<rect width="20.5452" height="15.2794" rx="0.564382" transform="matrix(-1 0 0 1 135.156 68.0133)" fill="#191D3C"/>
<rect width="20.5452" height="15.2794" rx="0.564382" transform="matrix(-1 0 0 1 211.597 68.0133)" fill="#191D3C"/>
<rect width="20.5452" height="15.2794" rx="0.564382" transform="matrix(-1 0 0 1 237.078 68.0133)" fill="#191D3C"/>
<rect width="20.5452" height="15.2794" rx="0.564382" transform="matrix(-1 0 0 1 262.559 68.0133)" fill="#191D3C"/>
<rect width="20.5452" height="15.2794" rx="0.564382" transform="matrix(-1 0 0 1 288.039 68.0133)" fill="#191D3C"/>
<rect width="20.5452" height="15.2794" rx="0.564382" transform="matrix(-1 0 0 1 313.52 68.0133)" fill="#191D3C"/>
<rect width="20.5452" height="15.2794" rx="0.564382" transform="matrix(-1 0 0 1 339 68.0133)" fill="#191D3C"/>
<rect width="20.5452" height="65.4767" rx="0.564382" transform="matrix(-1 0 0 1 33.2339 83)" fill="#9E7DF9"/>
<rect width="20.5452" height="65.4767" rx="0.564382" transform="matrix(-1 0 0 1 58.7144 83)" fill="#9E7DF9"/>
<rect width="20.5452" height="65.4767" rx="0.564382" transform="matrix(-1 0 0 1 84.1948 83)" fill="#9E7DF9"/>
<rect width="20.5452" height="65.4767" rx="0.564382" transform="matrix(-1 0 0 1 109.675 83)" fill="#9E7DF9"/>
<rect width="20.5452" height="65.4767" rx="0.564382" transform="matrix(-1 0 0 1 135.156 83)" fill="#9E7DF9"/>
<rect width="20.5452" height="43.4767" rx="0.564382" transform="matrix(-1 0 0 1 160.636 105)" fill="#BDBDBD"/>
<rect width="20.5452" height="35.4767" rx="0.564382" transform="matrix(-1 0 0 1 186.117 113)" fill="#BDBDBD"/>
<rect width="20.5452" height="65.4767" rx="0.564382" transform="matrix(-1 0 0 1 211.597 83)" fill="#9E7DF9"/>
<rect width="20.5452" height="65.4767" rx="0.564382" transform="matrix(-1 0 0 1 237.078 83)" fill="#9E7DF9"/>
<rect width="20.5452" height="65.4767" rx="0.564382" transform="matrix(-1 0 0 1 262.559 83)" fill="#9E7DF9"/>
<rect width="20.5452" height="65.4767" rx="0.564382" transform="matrix(-1 0 0 1 288.039 83)" fill="#9E7DF9"/>
<rect width="20.5452" height="65.4767" rx="0.564382" transform="matrix(-1 0 0 1 313.52 83)" fill="#9E7DF9"/>
<rect width="20.5452" height="65.4767" rx="0.564382" transform="matrix(-1 0 0 1 339 83)" fill="#9E7DF9"/>
<path d="M128.1 193.211V184.68H129.934V193.211H128.1ZM134.316 189.654C133.738 189.467 133.24 189.26 132.822 189.033C132.408 188.803 132.076 188.516 131.826 188.172C131.576 187.828 131.451 187.42 131.451 186.947C131.451 186.475 131.586 186.059 131.855 185.699C132.129 185.336 132.506 185.057 132.986 184.861C133.467 184.662 134.016 184.562 134.633 184.562C135.254 184.562 135.803 184.674 136.279 184.896C136.756 185.115 137.125 185.426 137.387 185.828C137.648 186.227 137.779 186.684 137.779 187.199H135.945C135.945 186.84 135.83 186.555 135.6 186.344C135.373 186.129 135.039 186.021 134.598 186.021C134.316 186.021 134.076 186.062 133.877 186.145C133.682 186.227 133.533 186.34 133.432 186.484C133.334 186.625 133.285 186.783 133.285 186.959C133.285 187.221 133.42 187.443 133.689 187.627C133.959 187.807 134.377 187.984 134.943 188.16C135.9 188.453 136.611 188.82 137.076 189.262C137.545 189.699 137.779 190.262 137.779 190.949C137.779 191.445 137.652 191.873 137.398 192.232C137.145 192.588 136.783 192.859 136.314 193.047C135.85 193.234 135.303 193.328 134.674 193.328C134.072 193.328 133.506 193.225 132.975 193.018C132.447 192.811 132.018 192.494 131.686 192.068C131.354 191.639 131.188 191.113 131.188 190.492H133.033C133.033 190.98 133.174 191.334 133.455 191.553C133.74 191.768 134.146 191.875 134.674 191.875C135.092 191.875 135.406 191.791 135.617 191.623C135.832 191.455 135.939 191.234 135.939 190.961C135.939 190.758 135.896 190.588 135.811 190.451C135.725 190.314 135.566 190.184 135.336 190.059C135.105 189.934 134.766 189.799 134.316 189.654ZM143.773 191.518H140.75L140.193 193.211H138.236L141.4 184.68H142.643H143.111L146.293 193.211H144.33L143.773 191.518ZM143.281 190.029L142.256 186.918L141.236 190.029H143.281ZM156.793 190.352C156.754 190.938 156.592 191.455 156.307 191.904C156.025 192.354 155.631 192.703 155.123 192.953C154.615 193.203 154.02 193.328 153.336 193.328C152.605 193.328 151.973 193.162 151.438 192.83C150.902 192.494 150.492 192.018 150.207 191.4C149.926 190.779 149.785 190.049 149.785 189.209V188.688C149.785 187.852 149.932 187.123 150.225 186.502C150.518 185.877 150.932 185.396 151.467 185.061C152.002 184.725 152.627 184.557 153.342 184.557C154.041 184.557 154.641 184.686 155.141 184.943C155.641 185.201 156.027 185.559 156.301 186.016C156.578 186.469 156.744 186.994 156.799 187.592H154.965C154.93 187.076 154.787 186.693 154.537 186.443C154.291 186.189 153.893 186.062 153.342 186.062C152.768 186.062 152.342 186.273 152.064 186.695C151.787 187.117 151.648 187.777 151.648 188.676V189.209C151.648 189.814 151.705 190.309 151.818 190.691C151.932 191.07 152.111 191.354 152.357 191.541C152.604 191.729 152.93 191.822 153.336 191.822C153.863 191.822 154.256 191.703 154.514 191.465C154.775 191.223 154.924 190.852 154.959 190.352H156.793ZM162.734 191.518H159.711L159.154 193.211H157.197L160.361 184.68H161.604H162.072L165.254 193.211H163.291L162.734 191.518ZM162.242 190.029L161.217 186.918L160.197 190.029H162.242ZM171.541 191.729V193.211H167.252H166.01V184.68H167.85V191.729H171.541ZM179.27 190.352C179.23 190.938 179.068 191.455 178.783 191.904C178.502 192.354 178.107 192.703 177.6 192.953C177.092 193.203 176.496 193.328 175.812 193.328C175.082 193.328 174.449 193.162 173.914 192.83C173.379 192.494 172.969 192.018 172.684 191.4C172.402 190.779 172.262 190.049 172.262 189.209V188.688C172.262 187.852 172.408 187.123 172.701 186.502C172.994 185.877 173.408 185.396 173.943 185.061C174.479 184.725 175.104 184.557 175.818 184.557C176.518 184.557 177.117 184.686 177.617 184.943C178.117 185.201 178.504 185.559 178.777 186.016C179.055 186.469 179.221 186.994 179.275 187.592H177.441C177.406 187.076 177.264 186.693 177.014 186.443C176.768 186.189 176.369 186.062 175.818 186.062C175.244 186.062 174.818 186.273 174.541 186.695C174.264 187.117 174.125 187.777 174.125 188.676V189.209C174.125 189.814 174.182 190.309 174.295 190.691C174.408 191.07 174.588 191.354 174.834 191.541C175.08 191.729 175.406 191.822 175.812 191.822C176.34 191.822 176.732 191.703 176.99 191.465C177.252 191.223 177.4 190.852 177.436 190.352H179.27ZM186.898 190.287C186.898 190.932 186.76 191.482 186.482 191.939C186.205 192.396 185.818 192.742 185.322 192.977C184.83 193.211 184.26 193.328 183.611 193.328C182.959 193.328 182.383 193.211 181.883 192.977C181.387 192.742 181 192.396 180.723 191.939C180.445 191.482 180.307 190.932 180.307 190.287V184.68H182.152V190.287C182.152 191.326 182.639 191.846 183.611 191.846C184.084 191.846 184.443 191.721 184.689 191.471C184.936 191.217 185.059 190.822 185.059 190.287V184.68H186.898V190.287ZM193.83 191.729V193.211H189.541H188.299V184.68H190.139V191.729H193.83ZM199.766 191.518H196.742L196.186 193.211H194.229L197.393 184.68H198.635H199.104L202.285 193.211H200.322L199.766 191.518ZM199.273 190.029L198.248 186.918L197.229 190.029H199.273ZM208.789 186.168H206.188V193.211H204.354V186.168H201.793V184.68H206.188H208.789V186.168ZM216.553 189.133C216.553 189.984 216.398 190.727 216.09 191.359C215.785 191.992 215.357 192.479 214.807 192.818C214.256 193.158 213.621 193.328 212.902 193.328C212.184 193.328 211.547 193.158 210.992 192.818C210.438 192.479 210.006 191.992 209.697 191.359C209.389 190.727 209.234 189.984 209.234 189.133V188.764C209.234 187.912 209.389 187.17 209.697 186.537C210.006 185.9 210.436 185.412 210.986 185.072C211.537 184.732 212.172 184.562 212.891 184.562C213.609 184.562 214.244 184.732 214.795 185.072C215.35 185.412 215.781 185.9 216.09 186.537C216.398 187.17 216.553 187.912 216.553 188.764V189.133ZM214.689 188.752C214.689 187.885 214.533 187.223 214.221 186.766C213.908 186.305 213.465 186.074 212.891 186.074C212.312 186.074 211.869 186.303 211.561 186.76C211.252 187.217 211.098 187.881 211.098 188.752V189.133C211.098 189.996 211.254 190.66 211.566 191.125C211.879 191.59 212.324 191.822 212.902 191.822C213.477 191.822 213.918 191.59 214.227 191.125C214.535 190.66 214.689 189.996 214.689 189.133V188.752ZM224.48 193.123V193.211H222.512L220.941 190.129H219.611V193.211H217.771V184.68H220.994C221.654 184.68 222.221 184.779 222.693 184.979C223.17 185.174 223.535 185.465 223.789 185.852C224.043 186.234 224.17 186.703 224.17 187.258C224.17 187.863 224.039 188.359 223.777 188.746C223.516 189.129 223.141 189.432 222.652 189.654L224.48 193.123ZM219.611 188.641H220.994C221.432 188.641 221.764 188.531 221.99 188.312C222.217 188.094 222.33 187.793 222.33 187.41C222.33 187.02 222.217 186.715 221.99 186.496C221.768 186.277 221.436 186.168 220.994 186.168H219.611V188.641Z" fill="white"/>
<defs>
<linearGradient id="paint0_linear" x1="223.838" y1="257.336" x2="120.401" y2="257.336" gradientUnits="userSpaceOnUse">
<stop stop-color="#65D6AD"/>
<stop offset="1" stop-color="white"/>
</linearGradient>
</defs>
</svg>
