<svg width="24" height="24" viewBox="0 0 24 24" fill="none" xmlns="http://www.w3.org/2000/svg">
<path d="M21.503 6.11888C21.455 6.11888 21.408 6.12587 21.362 6.1389C19.782 6.60291 18.135 6.87788 16.237 7.01091C16.172 6.74593 16.071 6.48291 15.855 6.2679C15.514 5.92688 15.058 5.85788 14.655 5.7969C14.4561 5.7669 14.269 5.73788 14.134 5.6829C14.01 5.6319 13.864 5.52291 13.71 5.40788C13.395 5.1729 13.003 4.87988 12.502 4.87988C12.001 4.87988 11.609 5.1729 11.294 5.40788C11.14 5.52287 10.994 5.63288 10.871 5.6829C10.736 5.73891 10.549 5.7669 10.35 5.7969C9.94702 5.85788 9.49102 5.92688 9.15 6.26691C8.91698 6.49993 8.81498 6.7869 8.751 7.07391C7.35802 7.01691 5.41702 6.85993 3.306 6.31491C3.06502 6.20293 2.81002 6.1299 2.54002 6.12493C2.52802 6.12493 2.51503 6.11991 2.50303 6.11991H2.50003C1.09898 6.11987 0 7.65788 0 9.61988C0 11.5818 1.098 13.1199 2.49998 13.1199C2.505 13.1199 2.50997 13.1178 2.51498 13.1178C2.52 13.1178 2.526 13.1158 2.53097 13.1158H2.53997C2.55295 13.1158 2.56598 13.1108 2.57897 13.1098C2.59898 13.1068 2.61797 13.1078 2.63798 13.1028C2.64 13.1028 2.64098 13.1008 2.643 13.0998C2.64698 13.0998 2.652 13.0978 2.65598 13.0978C2.877 13.0788 3.08798 13.0218 3.28898 12.9298C5.406 12.3818 7.35398 12.2238 8.74898 12.1668C8.81199 12.4528 8.91398 12.7389 9.14597 12.9708C9.37697 13.2018 9.66098 13.3038 9.94495 13.3668L9.00694 18.5298C8.97492 18.7038 9.03792 18.8818 9.17095 18.9969C9.30497 19.1129 9.48994 19.1499 9.65695 19.0929L12.4989 18.1458L15.3409 19.0929C15.3929 19.1109 15.4459 19.1189 15.4989 19.1189C15.618 19.1189 15.7339 19.0769 15.8269 18.9969C15.9599 18.8808 16.0229 18.7038 15.9909 18.5298L15.052 13.3669C15.336 13.3039 15.62 13.2019 15.851 12.9709C16.066 12.7559 16.168 12.4939 16.233 12.2289C18.132 12.3619 19.779 12.6369 21.359 13.1009C21.404 13.1139 21.452 13.1189 21.5 13.1189C22.902 13.1189 24 11.5809 24 9.6189C24 7.6569 22.904 6.11888 21.503 6.11888ZM3.97402 10.0699C3.96703 10.1279 3.957 10.1849 3.94702 10.2409C3.93403 10.3239 3.91903 10.4049 3.90103 10.4839C3.88402 10.5559 3.86503 10.6269 3.84502 10.6959C3.83002 10.7479 3.81202 10.7979 3.795 10.8479C3.765 10.9319 3.735 11.0149 3.69998 11.0929C3.69497 11.1039 3.69 11.1129 3.68498 11.1239C3.492 11.5339 3.22298 11.8519 2.90498 12.0079C2.89697 12.0119 2.89097 12.0199 2.883 12.0239C2.793 12.0649 2.70098 12.0899 2.60602 12.1019C2.57803 12.1059 2.54203 12.1159 2.51803 12.1159C2.51203 12.1159 2.50702 12.1189 2.50102 12.1199C1.689 12.1179 1.00303 10.9729 1.00303 9.6189C1.00303 8.26388 1.69003 7.11891 2.50303 7.11891C2.63902 7.11891 2.76905 7.16091 2.89603 7.22091C2.90203 7.22391 2.90602 7.22991 2.91202 7.2339C3.23302 7.3959 3.50602 7.7229 3.69802 8.1429V8.14388C3.73603 8.22587 3.768 8.31488 3.79903 8.4039C3.81403 8.44791 3.83002 8.49291 3.84305 8.5389C3.86503 8.61188 3.88406 8.6859 3.90206 8.76188C3.91908 8.83787 3.93408 8.91587 3.94706 8.9949C3.95705 9.05391 3.96708 9.1119 3.97406 9.1719C3.99108 9.31791 4.00205 9.46688 4.00205 9.61988C4.002 9.77288 3.99098 9.92288 3.97402 10.0699ZM15.912 10.2279C15.765 10.4249 15.613 10.6278 15.514 10.8669C15.482 10.9428 15.465 11.0219 15.444 11.0999C15.396 11.2739 15.361 11.4499 15.335 11.6219C15.296 11.8839 15.255 12.1549 15.146 12.2639C15.038 12.3719 14.767 12.4129 14.504 12.4529C14.255 12.4909 13.997 12.5299 13.749 12.6319C13.511 12.7309 13.307 12.8829 13.11 13.0299C12.893 13.1919 12.67 13.3589 12.501 13.3589C12.332 13.3589 12.109 13.1919 11.892 13.0299C11.695 12.8829 11.492 12.7309 11.253 12.6319C11.006 12.5289 10.748 12.4899 10.499 12.4529C10.236 12.4129 9.96502 12.3719 9.85702 12.2639C9.74902 12.1559 9.708 11.8849 9.66802 11.6219C9.666 11.6069 9.66202 11.5919 9.66 11.5769C9.66 11.5749 9.65902 11.5739 9.65902 11.5719C9.642 11.4588 9.62302 11.3439 9.59803 11.2289C9.57103 11.1059 9.53705 10.9839 9.48905 10.8669C9.39005 10.6289 9.23803 10.4249 9.09103 10.2279C8.92903 10.0109 8.76202 9.78784 8.76202 9.61885C8.76202 9.44987 8.92903 9.22684 9.09103 9.00985C9.23803 8.81284 9.39005 8.60987 9.48905 8.37085C9.53705 8.25385 9.57103 8.13484 9.59803 8.01184C9.62203 7.90182 9.64003 7.79284 9.65705 7.68385C9.65906 7.67785 9.65906 7.67185 9.66005 7.66487V7.66388C9.66206 7.6479 9.66605 7.63187 9.66806 7.61588C9.70805 7.35287 9.74906 7.08188 9.85706 6.97388C9.96506 6.86588 10.236 6.82487 10.4991 6.78488C10.7481 6.74687 11.0061 6.70787 11.2541 6.60587C11.4921 6.50687 11.6961 6.35485 11.8931 6.20785C12.1101 6.04585 12.3331 5.87884 12.5021 5.87884C12.6711 5.87884 12.8941 6.04585 13.1111 6.20785C13.3081 6.35485 13.5111 6.50687 13.7501 6.60587C13.9971 6.70885 14.2551 6.74785 14.5041 6.78488C14.7671 6.82487 15.0381 6.86588 15.1461 6.97388C15.2541 7.08188 15.2951 7.35287 15.3351 7.61588C15.3731 7.86488 15.4121 8.12288 15.5141 8.3709C15.6131 8.60888 15.7651 8.81288 15.9121 9.0099C16.0741 9.22688 16.2411 9.44991 16.2411 9.6189C16.2411 9.78788 16.075 10.0109 15.912 10.2279Z" fill="#354151"/>
</svg>
