<svg width="16" height="15" viewBox="0 0 16 15" fill="none" xmlns="http://www.w3.org/2000/svg">
<path d="M6.64844 14.75C6.78516 14.7773 6.89453 14.7227 6.92188 14.6133L10.7773 1.35156C10.8047 1.24219 10.75 1.10547 10.6406 1.07812L9.57422 0.777344C9.46484 0.75 9.32812 0.804688 9.30078 0.914062L5.44531 14.1758C5.41797 14.2852 5.47266 14.4219 5.60938 14.4492L6.64844 14.75ZM4.37891 11.4414L5.11719 10.6484C5.19922 10.5664 5.19922 10.4297 5.11719 10.3477L2.21875 7.75L5.11719 5.17969C5.19922 5.09766 5.19922 4.96094 5.11719 4.87891L4.37891 4.08594C4.29688 4.00391 4.16016 3.97656 4.07812 4.05859L0.304688 7.61328C0.222656 7.69531 0.222656 7.83203 0.304688 7.91406L4.07812 11.4414C4.16016 11.5234 4.29688 11.5234 4.37891 11.4414ZM12.1445 11.4414L15.918 7.91406C16 7.83203 16 7.69531 15.918 7.61328L12.1445 4.05859C12.0625 3.97656 11.9258 4.00391 11.8438 4.08594L11.1055 4.87891C11.0234 4.96094 11.0234 5.09766 11.1055 5.17969L14.0039 7.75L11.1055 10.3477C11.0234 10.4297 11.0234 10.5664 11.1055 10.6484L11.8438 11.4414C11.9258 11.5234 12.0625 11.5234 12.1445 11.4414Z" fill="#BED0F7"/>
</svg>
