<svg width="20" height="14" viewBox="0 0 20 14" fill="none" xmlns="http://www.w3.org/2000/svg">
<path d="M4.40625 5.40625C4.01042 5.80208 3.54167 6 3 6C2.45833 6 1.98958 5.80208 1.59375 5.40625C1.19792 5.01042 1 4.54167 1 4C1 3.45833 1.19792 2.98958 1.59375 2.59375C1.98958 2.19792 2.45833 2 3 2C3.54167 2 4.01042 2.19792 4.40625 2.59375C4.80208 2.98958 5 3.45833 5 4C5 4.54167 4.80208 5.01042 4.40625 5.40625ZM18.4062 5.40625C18.0104 5.80208 17.5417 6 17 6C16.4583 6 15.9896 5.80208 15.5938 5.40625C15.1979 5.01042 15 4.54167 15 4C15 3.45833 15.1979 2.98958 15.5938 2.59375C15.9896 2.19792 16.4583 2 17 2C17.5417 2 18.0104 2.19792 18.4062 2.59375C18.8021 2.98958 19 3.45833 19 4C19 4.54167 18.8021 5.01042 18.4062 5.40625ZM18 7C18.5417 7 19.0104 7.19792 19.4062 7.59375C19.8021 7.98958 20 8.45833 20 9V10C20 10.2708 19.8958 10.5104 19.6875 10.7188C19.5 10.9062 19.2708 11 19 11H16.9375C16.875 10.5208 16.7396 10.0625 16.5312 9.625C16.3229 9.1875 16.0521 8.80208 15.7188 8.46875C15.3854 8.11458 15.0104 7.82292 14.5938 7.59375C14.9896 7.19792 15.4583 7 16 7H18ZM12.4688 5.96875C11.7812 6.65625 10.9583 7 10 7C9.04167 7 8.21875 6.65625 7.53125 5.96875C6.84375 5.28125 6.5 4.45833 6.5 3.5C6.5 2.54167 6.84375 1.71875 7.53125 1.03125C8.21875 0.34375 9.04167 0 10 0C10.9583 0 11.7812 0.34375 12.4688 1.03125C13.1562 1.71875 13.5 2.54167 13.5 3.5C13.5 4.45833 13.1562 5.28125 12.4688 5.96875ZM12.4062 8C13.4062 8 14.25 8.35417 14.9375 9.0625C15.6458 9.75 16 10.5938 16 11.5938V12.5C16 12.9167 15.8542 13.2708 15.5625 13.5625C15.2708 13.8542 14.9167 14 14.5 14H5.5C5.08333 14 4.72917 13.8542 4.4375 13.5625C4.14583 13.2708 4 12.9167 4 12.5V11.5938C4 10.5938 4.34375 9.75 5.03125 9.0625C5.73958 8.35417 6.59375 8 7.59375 8H7.875C8.5625 8.33333 9.27083 8.5 10 8.5C10.7292 8.5 11.4375 8.33333 12.125 8H12.4062ZM5.40625 7.59375C4.78125 7.92708 4.26042 8.39583 3.84375 9C3.42708 9.60417 3.16667 10.2708 3.0625 11H1C0.729167 11 0.489583 10.9062 0.28125 10.7188C0.09375 10.5104 0 10.2708 0 10V9C0 8.45833 0.197917 7.98958 0.59375 7.59375C0.989583 7.19792 1.45833 7 2 7H4C4.54167 7 5.01042 7.19792 5.40625 7.59375Z" fill="#BDBDBD"/>
</svg>
