<svg width="17" height="17" viewBox="0 0 17 17" fill="none" xmlns="http://www.w3.org/2000/svg">
<path d="M16.3438 2.3125L14.6562 0.625C13.8438 -0.1875 12.5 -0.1875 11.6875 0.625L1.75 10.5L1 15.1562C0.90625 15.6562 1.34375 16.0938 1.84375 16L6.5 15.25L16.375 5.3125C17.1875 4.5 17.1875 3.15625 16.3438 2.3125ZM4.75 9.4375L10.0625 4.15625L12.8438 6.9375L7.5625 12.25V10.9375H6.0625V9.4375H4.75ZM3.5625 14.3438L2.65625 13.4375L3.0625 11.1562L3.625 10.5625H4.9375V12.0625H6.4375V13.375L5.84375 13.9375L3.5625 14.3438ZM15.4062 4.34375L13.875 5.875L11.125 3.125L12.6562 1.59375C12.9375 1.3125 13.4062 1.3125 13.6875 1.59375L15.375 3.28125C15.6875 3.59375 15.6875 4.0625 15.4062 4.34375Z" fill="white"/>
</svg>
