<svg width="122" height="118" viewBox="0 0 122 118" fill="none" xmlns="http://www.w3.org/2000/svg">
<path d="M118.424 32.8378C116.729 30.8571 114.383 29.5456 111.809 29.139L82.8088 24.5592C82.7583 24.5513 82.7074 24.5472 82.6563 24.5469H65.9268L65.9219 22.4797C67.0329 22.2513 68.0311 21.6468 68.7484 20.7682C69.4656 19.8895 69.858 18.7905 69.8594 17.6563V12.3529C71.0187 11.9276 72.0188 11.1553 72.7233 10.1411C73.4279 9.12694 73.8028 7.92027 73.7969 6.68539V3.875C73.7969 3.61393 73.6932 3.36355 73.5086 3.17895C73.324 2.99434 73.0736 2.89063 72.8125 2.89063H68.3287C67.5383 2.8894 66.7581 2.71201 66.0449 2.37137L64.5019 1.63309C63.3955 1.10383 62.173 0.863508 60.9486 0.934555C59.7242 1.0056 58.5377 1.3857 57.4999 2.03938C56.4622 2.69306 55.6069 3.59901 55.014 4.67267C54.4211 5.74633 54.1099 6.9527 54.1094 8.17918V14.7031C54.1097 15.394 54.2917 16.0727 54.6373 16.671C54.9829 17.2693 55.4798 17.7661 56.0781 18.1115V24.5469H39.3438C39.2927 24.5472 39.2417 24.5513 39.1912 24.5592L10.1915 29.139C8.67191 29.3782 7.21985 29.9351 5.93012 30.7735C4.64039 31.6119 3.54198 32.7129 2.70662 34.0047C1.87126 35.2964 1.31773 36.7497 1.08216 38.2699C0.846584 39.79 0.934273 41.3428 1.3395 42.8267L12.5269 83.8456C12.5966 84.1043 12.7185 84.3459 12.8849 84.5558C13.0514 84.7656 13.259 84.9393 13.4949 85.066C13.7309 85.1928 13.9903 85.2699 14.2572 85.2928C14.5241 85.3157 14.7928 85.2839 15.0469 85.1991L19.2896 83.7841C19.683 83.655 20.0255 83.4049 20.2682 83.0694C20.5108 82.7339 20.6412 82.3303 20.6406 81.9163V76.3201L21.5241 77.1248C21.7379 77.3175 21.9869 77.4671 22.2575 77.5653C22.351 77.6416 22.447 77.7204 22.5429 77.7942C27.0729 81.3441 32.6083 83.3724 38.3594 83.5897V116.094C38.3594 116.355 38.4631 116.605 38.6477 116.79C38.8323 116.974 39.0827 117.078 39.3438 117.078H59.0313C59.2923 117.078 59.5427 116.974 59.7273 116.79C59.9119 116.605 60.0156 116.355 60.0156 116.094V93.4531H61.9844V116.094C61.9844 116.355 62.0881 116.605 62.2727 116.79C62.4573 116.974 62.7077 117.078 62.9688 117.078H82.6563C82.9173 117.078 83.1677 116.974 83.3523 116.79C83.5369 116.605 83.6406 116.355 83.6406 116.094V83.5872C89.5127 83.3707 95.157 81.2599 99.7302 77.5702C100.006 77.4723 100.259 77.3209 100.476 77.1248L101.359 76.3201V81.9163C101.359 82.33 101.489 82.7333 101.731 83.0687C101.973 83.4041 102.315 83.6545 102.708 83.7841L106.951 85.1967C107.205 85.2811 107.474 85.3131 107.74 85.2906C108.007 85.2682 108.267 85.1919 108.503 85.0663C108.739 84.9397 108.947 84.7664 109.114 84.557C109.28 84.3475 109.403 84.1063 109.473 83.8481L120.661 42.8292C121.131 41.1076 121.172 39.2972 120.782 37.5558C120.393 35.8143 119.583 34.1946 118.424 32.8378ZM58.0469 12.7344C58.5616 12.7319 59.0564 12.9337 59.4225 13.2955C59.5248 13.3955 59.6476 13.4722 59.7823 13.5202C59.9171 13.5682 60.0606 13.5864 60.2031 13.5735C60.3456 13.5606 60.4836 13.517 60.6076 13.4456C60.7315 13.3743 60.8386 13.2769 60.9213 13.1601C61.3563 12.538 61.6671 11.8378 61.8367 11.0979L65.8284 12.4268C66.4343 12.631 67.0691 12.7366 67.7085 12.7393C67.7676 12.7393 67.8291 12.7368 67.8906 12.7344V17.6563C67.89 18.4393 67.5786 19.19 67.025 19.7437C66.4713 20.2974 65.7205 20.6087 64.9375 20.6094C63.7282 20.6101 62.54 20.2927 61.4922 19.689C61.3801 19.6178 61.2549 19.5699 61.1239 19.5484C60.9929 19.5268 60.8589 19.532 60.7299 19.5636C60.601 19.5952 60.4797 19.6525 60.3735 19.7322C60.2673 19.8118 60.1783 19.9122 60.1119 20.0271C60.0454 20.142 60.0029 20.2692 59.9869 20.401C59.9709 20.5328 59.9817 20.6665 60.0187 20.794C60.0557 20.9215 60.1181 21.0402 60.2021 21.143C60.2862 21.2457 60.3902 21.3304 60.5078 21.392C61.5657 22.0025 62.739 22.3863 63.9531 22.5191L63.9581 25.1227L61 28.0759L58.0469 25.1227V17.4864C58.0472 17.2827 57.9841 17.084 57.8663 16.9178C57.7486 16.7515 57.5821 16.626 57.3898 16.5587C56.9523 16.4035 56.5837 16.0988 56.3491 15.6983C56.1144 15.2978 56.0289 14.8272 56.1075 14.3698C56.1861 13.9123 56.4238 13.4973 56.7786 13.198C57.1335 12.8988 57.5827 12.7346 58.0469 12.7344ZM23.1975 75.6384C23.1758 75.6673 23.1475 75.6907 23.115 75.7065C23.0825 75.7223 23.0467 75.7302 23.0105 75.7295C22.9807 75.7305 22.951 75.7255 22.9231 75.715C22.8953 75.7044 22.8698 75.6884 22.8481 75.6679L20.3182 73.3645C20.1771 73.2363 20.0018 73.1518 19.8136 73.1213C19.6254 73.0908 19.4323 73.1157 19.258 73.1928C19.0836 73.27 18.9354 73.3961 18.8313 73.5559C18.7273 73.7157 18.6719 73.9023 18.6719 74.0929V81.9163L14.4268 83.3313L3.23934 42.3075C2.90667 41.0907 2.83444 39.8174 3.02736 38.5708C3.22029 37.3242 3.67402 36.1323 4.35894 35.073C5.04385 34.0137 5.94453 33.1108 7.00215 32.4233C8.05976 31.7358 9.25052 31.2791 10.4966 31.0831L18.4036 29.8354L20.4216 39.4995L15.5563 40.3092C15.4222 40.3316 15.2943 40.3815 15.1804 40.4559C15.0666 40.5302 14.9694 40.6273 14.895 40.741C14.8205 40.8548 14.7704 40.9827 14.7479 41.1168C14.7253 41.2508 14.7308 41.3881 14.7639 41.52L23.2418 75.4342C23.2518 75.4692 23.253 75.5062 23.2453 75.5418C23.2376 75.5775 23.2212 75.6106 23.1975 75.6384ZM38.3594 38.5053V72.1143L37.3159 72.5327C33.3953 74.0991 29.1442 74.6567 24.9522 74.1545L16.932 42.0761L38.3594 38.5053ZM38.7925 81.6283C33.7233 81.5115 28.8058 79.8757 24.6766 76.9329C24.7012 76.9058 24.7258 76.8812 24.7479 76.8517C24.9124 76.6443 25.0367 76.4081 25.1146 76.1552C29.5071 76.6144 33.9453 75.9987 38.0468 74.3612L39.5332 73.7656H43.5101L38.7925 81.6283ZM68.7716 73.7952L61.8343 84.8915C61.7457 85.0329 61.6227 85.1494 61.4768 85.2302C61.3309 85.311 61.1668 85.3534 61 85.3534C60.8332 85.3534 60.6691 85.311 60.5232 85.2302C60.3773 85.1494 60.2543 85.0329 60.1657 84.8915L53.2284 73.7952C53.1174 73.6164 53.0665 73.4069 53.0832 73.1972L53.1939 71.7969H40.3281V37.3438C40.3283 37.2006 40.2973 37.0592 40.2372 36.9293C40.1771 36.7994 40.0894 36.6842 39.9803 36.5917C39.8711 36.4991 39.743 36.4315 39.6051 36.3935C39.4671 36.3555 39.3225 36.3481 39.1813 36.3717L22.3633 39.1747L20.3502 29.5278L39.42 26.5156H56.654L59.3389 29.198L53.3194 32.2078L49.8839 28.7723C49.7925 28.6808 49.6839 28.6083 49.5644 28.5588C49.4449 28.5093 49.3168 28.4838 49.1875 28.4838C49.0582 28.4838 48.9301 28.5093 48.8106 28.5588C48.6911 28.6083 48.5825 28.6808 48.4911 28.7723C48.3996 28.8638 48.3271 28.9723 48.2776 29.0918C48.2281 29.2113 48.2026 29.3394 48.2026 29.4688C48.2026 29.5981 48.2281 29.7262 48.2776 29.8457C48.3271 29.9652 48.3996 30.0737 48.4911 30.1652L52.4286 34.1027C52.5747 34.249 52.7631 34.3455 52.9672 34.3786C53.1713 34.4118 53.3806 34.3798 53.5655 34.2873L56.622 32.759L58.0272 35.5694L56.3341 57.0313L55.1676 71.7969L55.0716 73.0274L61 82.5143L66.9284 73.0274L66.8324 71.7969L65.6659 57.0313L63.9704 35.5694L65.3682 32.7516L68.4345 34.2873C68.5715 34.355 68.7222 34.3904 68.875 34.3906C69.0043 34.3909 69.1324 34.3656 69.252 34.3162C69.3715 34.2667 69.4801 34.1942 69.5714 34.1027L73.5089 30.1652C73.6937 29.9805 73.7974 29.73 73.7974 29.4688C73.7974 29.2075 73.6937 28.957 73.5089 28.7723C73.3242 28.5876 73.0737 28.4838 72.8125 28.4838C72.5513 28.4838 72.3008 28.5876 72.1161 28.7723L68.6806 32.2078L62.6636 29.2005L65.3509 26.5156H82.58L101.65 29.5278L99.6367 39.1747L82.8187 36.3717C82.6775 36.3481 82.5329 36.3555 82.3949 36.3935C82.257 36.4315 82.1289 36.4991 82.0198 36.5917C81.9106 36.6842 81.8229 36.7994 81.7628 36.9293C81.7027 37.0592 81.6717 37.2006 81.6719 37.3438V71.7969H68.8061L68.9168 73.1972C68.9335 73.4069 68.8826 73.6164 68.7716 73.7952ZM105.068 42.0761L97.0478 74.1569C92.8556 74.6571 88.6049 74.0987 84.6841 72.5327L83.6406 72.1143V38.5053L105.068 42.0761ZM83.2075 81.6283L78.4899 73.7656H82.4668L83.9532 74.3612C88.0518 76.0064 92.4914 76.6215 96.8829 76.1527C96.9627 76.4061 97.0878 76.6429 97.2521 76.8517C97.2742 76.8812 97.2988 76.9058 97.321 76.9304C93.195 79.8782 88.277 81.5152 83.2075 81.6283ZM118.761 42.3099L107.576 83.3313L103.328 81.9163V74.0929C103.328 73.9023 103.273 73.7157 103.169 73.5559C103.065 73.3961 102.916 73.27 102.742 73.1928C102.568 73.1157 102.375 73.0908 102.186 73.1213C101.998 73.1518 101.823 73.2363 101.682 73.3645L99.1519 75.6679C99.1071 75.7075 99.0493 75.7294 98.9895 75.7295C98.9533 75.7302 98.9175 75.7223 98.885 75.7065C98.8525 75.6907 98.8242 75.6673 98.8025 75.6384C98.7788 75.6106 98.7624 75.5775 98.7547 75.5418C98.747 75.5062 98.7482 75.4692 98.7582 75.4342L107.236 41.52C107.269 41.3881 107.275 41.2508 107.252 41.1168C107.23 40.9827 107.18 40.8548 107.105 40.741C107.031 40.6273 106.933 40.5302 106.82 40.4559C106.706 40.3815 106.578 40.3316 106.444 40.3092L101.578 39.4995L103.596 29.8354L111.503 31.0831C112.75 31.2794 113.94 31.7364 114.998 32.4242C116.056 33.1119 116.956 34.015 117.641 35.0745C118.326 36.134 118.78 37.3261 118.973 38.5728C119.166 39.8196 119.093 41.093 118.761 42.3099Z" fill="#7B93DB"/>
<path d="M28.8038 87.8351L26.835 89.8038C26.6504 89.9885 26.5466 90.2389 26.5466 90.5C26.5466 90.7612 26.6504 91.0116 26.835 91.1962C27.0196 91.3809 27.2701 91.4846 27.5312 91.4846C27.7923 91.4846 28.0428 91.3809 28.2274 91.1962L30.1962 89.2275C30.3808 89.0428 30.4845 88.7924 30.4845 88.5313C30.4845 88.2701 30.3808 88.0197 30.1962 87.8351C30.0115 87.6504 29.7611 87.5467 29.5 87.5467C29.2388 87.5467 28.9884 87.6504 28.8038 87.8351Z" fill="#7B93DB"/>
<path d="M33.4375 88.5312C33.1764 88.5312 32.926 88.635 32.7414 88.8196C32.5568 89.0042 32.4531 89.2546 32.4531 89.5156V92.4688C32.4531 92.7298 32.5568 92.9802 32.7414 93.1648C32.926 93.3494 33.1764 93.4531 33.4375 93.4531C33.6986 93.4531 33.949 93.3494 34.1336 93.1648C34.3182 92.9802 34.4219 92.7298 34.4219 92.4688V89.5156C34.4219 89.2546 34.3182 89.0042 34.1336 88.8196C33.949 88.635 33.6986 88.5312 33.4375 88.5312Z" fill="#7B93DB"/>
<path d="M28.5156 84.5938C28.5156 84.3327 28.4119 84.0823 28.2273 83.8977C28.0427 83.7131 27.7923 83.6094 27.5312 83.6094H24.5781C24.3171 83.6094 24.0667 83.7131 23.8821 83.8977C23.6975 84.0823 23.5938 84.3327 23.5938 84.5938C23.5938 84.8548 23.6975 85.1052 23.8821 85.2898C24.0667 85.4744 24.3171 85.5781 24.5781 85.5781H27.5312C27.7923 85.5781 28.0427 85.4744 28.2273 85.2898C28.4119 85.1052 28.5156 84.8548 28.5156 84.5938Z" fill="#7B93DB"/>
<path d="M93.1962 89.8038C93.0115 89.6192 92.7611 89.5154 92.5 89.5154C92.2388 89.5154 91.9884 89.6192 91.8038 89.8038C91.6191 89.9885 91.5154 90.2389 91.5154 90.5C91.5154 90.7611 91.6191 91.0116 91.8038 91.1962L93.7725 93.165C93.9572 93.3496 94.2076 93.4534 94.4687 93.4534C94.7298 93.4534 94.9803 93.3496 95.1649 93.165C95.3496 92.9803 95.4533 92.7299 95.4533 92.4688C95.4533 92.2077 95.3496 91.9572 95.1649 91.7726L93.1962 89.8038Z" fill="#7B93DB"/>
<path d="M88.5625 90.5C88.3014 90.5 88.051 90.6037 87.8664 90.7883C87.6818 90.9729 87.5781 91.2233 87.5781 91.4844V94.4375C87.5781 94.6986 87.6818 94.949 87.8664 95.1336C88.051 95.3182 88.3014 95.4219 88.5625 95.4219C88.8236 95.4219 89.074 95.3182 89.2586 95.1336C89.4432 94.949 89.5469 94.6986 89.5469 94.4375V91.4844C89.5469 91.2233 89.4432 90.9729 89.2586 90.7883C89.074 90.6037 88.8236 90.5 88.5625 90.5Z" fill="#7B93DB"/>
<path d="M97.4219 85.5781H94.4688C94.2077 85.5781 93.9573 85.6818 93.7727 85.8664C93.5881 86.051 93.4844 86.3014 93.4844 86.5625C93.4844 86.8236 93.5881 87.074 93.7727 87.2586C93.9573 87.4432 94.2077 87.5469 94.4688 87.5469H97.4219C97.6829 87.5469 97.9333 87.4432 98.1179 87.2586C98.3025 87.074 98.4062 86.8236 98.4062 86.5625C98.4062 86.3014 98.3025 86.051 98.1179 85.8664C97.9333 85.6818 97.6829 85.5781 97.4219 85.5781Z" fill="#7B93DB"/>
</svg>
