<svg width="34" height="34" viewBox="0 0 34 34" fill="none" xmlns="http://www.w3.org/2000/svg">
<circle cx="17" cy="17" r="17" fill="#E0E8F9"/>
<path d="M18.125 13.0312C18.125 13.2656 18.207 13.4648 18.3711 13.6289C18.5352 13.793 18.7344 13.875 18.9688 13.875H23.75V25.4062C23.75 25.6406 23.668 25.8398 23.5039 26.0039C23.3398 26.168 23.1406 26.25 22.9062 26.25H11.0938C10.8594 26.25 10.6602 26.168 10.4961 26.0039C10.332 25.8398 10.25 25.6406 10.25 25.4062V9.09375C10.25 8.85938 10.332 8.66016 10.4961 8.49609C10.6602 8.33203 10.8594 8.25 11.0938 8.25H18.125V13.0312ZM12.5 10.7812V11.3438C12.5 11.5312 12.5938 11.625 12.7812 11.625H15.5938C15.7812 11.625 15.875 11.5312 15.875 11.3438V10.7812C15.875 10.5938 15.7812 10.5 15.5938 10.5H12.7812C12.5938 10.5 12.5 10.5938 12.5 10.7812ZM12.5 13.0312V13.5938C12.5 13.7812 12.5938 13.875 12.7812 13.875H15.5938C15.7812 13.875 15.875 13.7812 15.875 13.5938V13.0312C15.875 12.8438 15.7812 12.75 15.5938 12.75H12.7812C12.5938 12.75 12.5 12.8438 12.5 13.0312ZM19.2852 21.75C19.1211 21.75 19.0039 21.6797 18.9336 21.5391C18.7227 21.1172 18.3594 20.8594 17.8438 20.7656C17.3516 20.6484 16.9414 20.7305 16.6133 21.0117L16.1211 19.5703C15.9805 19.1719 15.7109 18.9727 15.3125 18.9727C14.9141 18.9727 14.6445 19.1719 14.5039 19.5703L13.8711 21.4688C13.8008 21.6562 13.6719 21.75 13.4844 21.75H13.0625C12.8984 21.75 12.7578 21.8086 12.6406 21.9258C12.5469 22.0195 12.5 22.1484 12.5 22.3125C12.5 22.4766 12.5469 22.6172 12.6406 22.7344C12.7578 22.8281 12.8984 22.875 13.0625 22.875H13.4844C13.8125 22.875 14.1055 22.7812 14.3633 22.5938C14.6445 22.4062 14.832 22.1484 14.9258 21.8203L15.3125 20.7305L15.9102 22.4883C15.9805 22.7227 16.1445 22.8516 16.4023 22.875C16.4258 22.875 16.4375 22.875 16.4375 22.875C16.6719 22.875 16.8359 22.7695 16.9297 22.5586L17.2109 22.0312C17.2812 21.8906 17.3984 21.8203 17.5625 21.8203C17.7266 21.8203 17.8438 21.8906 17.9141 22.0312C18.1953 22.5938 18.6523 22.875 19.2852 22.875H20.9375C21.1016 22.875 21.2305 22.8281 21.3242 22.7344C21.4414 22.6172 21.5 22.4766 21.5 22.3125C21.5 22.1484 21.4414 22.0195 21.3242 21.9258C21.2305 21.8086 21.1016 21.75 20.9375 21.75H19.2852ZM23.5039 11.9414C23.668 12.1055 23.75 12.3047 23.75 12.5391V12.75H19.25V8.25H19.4609C19.6953 8.25 19.8945 8.33203 20.0586 8.49609L23.5039 11.9414Z" fill="#647ACB"/>
</svg>
