<svg width="16" height="17" viewBox="0 0 16 17" fill="none" xmlns="http://www.w3.org/2000/svg">
<g clip-path="url(#clip0)">
<path d="M12.8892 11.8092C12.27 11.8092 11.7159 12.0502 11.2922 12.4277L5.48255 9.09438C5.52329 8.90964 5.55588 8.7249 5.55588 8.53213C5.55588 8.33936 5.52329 8.15462 5.48255 7.96988L11.227 4.66867C11.667 5.07028 12.2455 5.31928 12.8892 5.31928C14.2418 5.31928 15.3337 4.24297 15.3337 2.90964C15.3337 1.57631 14.2418 0.5 12.8892 0.5C11.5366 0.5 10.4448 1.57631 10.4448 2.90964C10.4448 3.10241 10.4774 3.28715 10.5181 3.47189L4.77366 6.77309C4.33366 6.37149 3.75514 6.12249 3.11144 6.12249C1.75884 6.12249 0.666992 7.19879 0.666992 8.53213C0.666992 9.86546 1.75884 10.9418 3.11144 10.9418C3.75514 10.9418 4.33366 10.6928 4.77366 10.2912L10.5751 13.6325C10.5344 13.8012 10.51 13.9779 10.51 14.1546C10.51 15.4478 11.5774 16.5 12.8892 16.5C14.2011 16.5 15.2685 15.4478 15.2685 14.1546C15.2685 12.8614 14.2011 11.8092 12.8892 11.8092Z" fill="#8795A9"/>
</g>
<defs>
<clipPath id="clip0">
<path d="M0 0.5H16V16.5H0V0.5Z" fill="white"/>
</clipPath>
</defs>
</svg>
