<svg width="20" height="20" viewBox="0 0 20 20" fill="none" xmlns="http://www.w3.org/2000/svg">
<path d="M10.2148 19.1172L11.0742 18.3008C11.2891 18.0859 11.2891 17.7422 11.0742 17.5703L4.41406 10.8672H19.1094C19.3672 10.8672 19.625 10.6523 19.625 10.3516V9.14844C19.625 8.89062 19.3672 8.63281 19.1094 8.63281H4.41406L11.0742 1.97266C11.2891 1.80078 11.2891 1.45703 11.0742 1.24219L10.2148 0.425781C10.043 0.210938 9.69922 0.210938 9.48438 0.425781L0.503906 9.40625C0.289062 9.62109 0.289062 9.92188 0.503906 10.1367L9.48438 19.1172C9.69922 19.332 10.043 19.332 10.2148 19.1172Z" fill="white"/>
</svg>
