<svg width="19" height="25" viewBox="0 0 19 25" fill="none" xmlns="http://www.w3.org/2000/svg">
<path d="M14.3163 5.92243L14.0249 5.53306L13.8764 5.34122L13.8021 5.24251L13.7677 5.1931L13.7564 5.1822L13.7507 5.17674L13.7109 5.13301L13.6882 5.11119L13.33 4.72314C12.3694 3.70142 11.2062 2.84507 9.92541 2.23589C8.64452 1.62114 7.26744 1.20863 5.85624 1.04164C5.50503 1.0096 5.15337 0.955312 4.79714 0.951195L4.26802 0.92822L3.73956 0.938624C3.38333 0.934507 3.03354 0.974784 2.67796 1.00404C2.32795 1.03319 1.94533 1.10194 1.59008 1.14789C1.36278 1.19131 1.05652 1.46446 0.970582 1.62197C0.809834 1.93676 1.14688 2.09708 1.61568 2.16575C3.16759 2.41345 4.81341 2.6259 6.44605 3.01669C8.40874 3.49558 10.193 4.52335 11.6114 5.90334C11.7928 6.07228 11.9523 6.25834 12.1283 6.43296L12.1908 6.4985L12.2021 6.50941L12.2192 6.53133L12.3448 6.69024L12.6013 7.00239L12.8579 7.31453C12.8978 7.36383 12.949 7.41847 12.9834 7.46788L13.0809 7.61621L13.4763 8.1983C13.9767 9.02318 14.456 9.90969 14.7639 10.8497C14.9179 11.3196 14.9554 11.8142 15.0538 12.2908C15.2622 13.8282 15.1483 15.3942 14.7715 16.8874C14.4512 18.1458 13.9351 19.3468 13.2559 20.4621C13.1672 19.6346 13.0231 18.8139 12.9956 17.9852C12.9942 17.9129 12.7864 17.8169 12.6468 17.7918C12.3677 17.7472 12.153 17.8683 11.9948 18.0272C11.4765 18.5549 11.2879 19.1485 11.2827 19.7329C11.2771 20.8627 11.216 21.9992 11.3661 23.1203L11.3727 23.1758C11.4505 23.7363 11.9647 24.1325 12.5308 24.0545C12.8027 24.0158 13.069 23.9716 13.3348 23.9052C13.5073 23.9073 13.6856 23.9149 13.8579 23.906C14.9592 23.8787 16.0592 23.7847 17.1209 23.4411C17.425 23.3405 17.6532 23.0633 17.5765 22.5584C17.5063 22.1035 17.2498 21.7913 16.9266 21.7699C16.3472 21.7368 15.7565 21.6927 15.1904 21.7707C14.9129 21.8095 14.6355 21.8539 14.3527 21.904C15.5222 20.5343 16.4244 18.8749 16.8345 17.0916C17.5153 14.0788 16.9958 10.8669 15.5301 8.21352C15.4014 7.89886 15.2783 7.57852 15.1218 7.2644C14.9488 6.95618 14.7701 6.6425 14.586 6.33449C14.5105 6.17459 14.4135 6.05408 14.3163 5.92243Z" fill="#19216C"/>
</svg>
