<svg width="14" height="16" viewBox="0 0 14 16" fill="none" xmlns="http://www.w3.org/2000/svg">
<path d="M13.625 15C13.875 15 14 15.125 14 15.375V16H0V15.375C0 15.125 0.125 15 0.375 15H1V0.75C1 0.541667 1.07292 0.364583 1.21875 0.21875C1.36458 0.0729167 1.54167 0 1.75 0H12.25C12.4583 0 12.6354 0.0729167 12.7812 0.21875C12.9271 0.364583 13 0.541667 13 0.75V15H13.625ZM4 2.375V3.625C4 3.875 4.125 4 4.375 4H5.625C5.875 4 6 3.875 6 3.625V2.375C6 2.125 5.875 2 5.625 2H4.375C4.125 2 4 2.125 4 2.375ZM4 5.375V6.625C4 6.875 4.125 7 4.375 7H5.625C5.875 7 6 6.875 6 6.625V5.375C6 5.125 5.875 5 5.625 5H4.375C4.125 5 4 5.125 4 5.375ZM5.625 10C5.875 10 6 9.875 6 9.625V8.375C6 8.125 5.875 8 5.625 8H4.375C4.125 8 4 8.125 4 8.375V9.625C4 9.875 4.125 10 4.375 10H5.625ZM8 15V12.375C8 12.125 7.875 12 7.625 12H6.375C6.125 12 6 12.125 6 12.375V15H8ZM10 9.625V8.375C10 8.125 9.875 8 9.625 8H8.375C8.125 8 8 8.125 8 8.375V9.625C8 9.875 8.125 10 8.375 10H9.625C9.875 10 10 9.875 10 9.625ZM10 6.625V5.375C10 5.125 9.875 5 9.625 5H8.375C8.125 5 8 5.125 8 5.375V6.625C8 6.875 8.125 7 8.375 7H9.625C9.875 7 10 6.875 10 6.625ZM10 3.625V2.375C10 2.125 9.875 2 9.625 2H8.375C8.125 2 8 2.125 8 2.375V3.625C8 3.875 8.125 4 8.375 4H9.625C9.875 4 10 3.875 10 3.625Z" fill="#BDBDBD"/>
</svg>
