<svg width="11" height="15" viewBox="0 0 11 15" fill="none" xmlns="http://www.w3.org/2000/svg">
<path d="M6.42315 4.49788L6.44016 0.779173L0.971471 0.754149C0.588663 0.752398 0.313852 1.05192 0.312225 1.40739L0.25417 14.0948C0.252419 14.4776 0.524602 14.7523 0.907411 14.754L10.0948 14.796C10.4503 14.7977 10.7523 14.5256 10.7541 14.1428L10.7951 5.17415L7.07639 5.15713C6.69358 5.15538 6.4214 4.88069 6.42315 4.49788ZM8.47473 10.3042L5.83774 12.9172C5.64559 13.0804 5.34481 13.079 5.15416 12.914L2.54119 10.2771C2.26901 10.0024 2.46267 9.51106 2.84548 9.51282L4.65014 9.52107L4.66015 7.3336C4.66115 7.11485 4.85356 6.89698 5.09965 6.8981L5.97464 6.90211C6.19339 6.90311 6.41114 7.12286 6.41014 7.3416L6.40013 9.52908L8.17745 9.53721C8.56026 9.53897 8.74941 10.032 8.47473 10.3042ZM10.6106 3.66938L7.94318 0.977459C7.80696 0.867459 7.64328 0.784678 7.47922 0.783928L7.31515 0.783177L7.29914 4.28314L10.7991 4.29916L10.7999 4.13509C10.8006 3.97103 10.7193 3.8066 10.6106 3.66938Z" fill="#7B93DB"/>
</svg>
