<svg width="24" height="24" viewBox="0 0 24 24" fill="none" xmlns="http://www.w3.org/2000/svg">
<path fill-rule="evenodd" clip-rule="evenodd" d="M20.7522 3.24783C21.0826 3.57828 21.0826 4.11403 20.7522 4.44448L11.4445 13.7522C11.114 14.0826 10.5783 14.0826 10.2478 13.7522C9.91739 13.4217 9.91739 12.886 10.2478 12.5555L19.5555 3.24783C19.886 2.91739 20.4217 2.91739 20.7522 3.24783Z" fill="#354151"/>
<path fill-rule="evenodd" clip-rule="evenodd" d="M20.7603 3.23966C20.9826 3.46191 21.0579 3.79183 20.954 4.08849L15.2268 20.4521C15.116 20.7687 14.8231 20.9856 14.4879 20.9993C14.1527 21.013 13.8431 20.8207 13.7069 20.5141L10.562 13.438L3.48589 10.2931C3.17933 10.1569 2.98701 9.84731 3.00068 9.51212C3.01436 9.17692 3.23126 8.88404 3.5479 8.77322L19.9115 3.04596C20.2082 2.94213 20.5381 3.01741 20.7603 3.23966ZM6.03633 9.63596L11.5141 12.0705C11.6992 12.1528 11.8472 12.3008 11.9295 12.4859L14.364 17.9637L18.8482 5.15181L6.03633 9.63596Z" fill="#354151"/>
</svg>
