<svg width="18" height="18" viewBox="0 0 18 18" fill="none" xmlns="http://www.w3.org/2000/svg">
<path d="M2.8125 3.09766C4.52344 1.38672 6.58594 0.53125 9 0.53125C11.4141 0.53125 13.4648 1.38672 15.1523 3.09766C16.8633 4.78516 17.7188 6.83594 17.7188 9.25C17.7188 11.6641 16.8633 13.7266 15.1523 15.4375C13.4648 17.125 11.4141 17.9688 9 17.9688C6.58594 17.9688 4.52344 17.125 2.8125 15.4375C1.125 13.7266 0.28125 11.6641 0.28125 9.25C0.28125 6.83594 1.125 4.78516 2.8125 3.09766ZM11.1797 4.82031C10.5703 4.21094 9.84375 3.90625 9 3.90625C8.15625 3.90625 7.42969 4.21094 6.82031 4.82031C6.21094 5.42969 5.90625 6.15625 5.90625 7C5.90625 7.84375 6.21094 8.57031 6.82031 9.17969C7.42969 9.78906 8.15625 10.0938 9 10.0938C9.84375 10.0938 10.5703 9.78906 11.1797 9.17969C11.7891 8.57031 12.0938 7.84375 12.0938 7C12.0938 6.15625 11.7891 5.42969 11.1797 4.82031ZM3.86719 13.6094C5.20312 15.2031 6.91406 16 9 16C11.0859 16 12.7969 15.2031 14.1328 13.6094C13.8047 12.9766 13.3359 12.4727 12.7266 12.0977C12.1172 11.6992 11.4375 11.5 10.6875 11.5C10.6172 11.5 10.5352 11.5117 10.4414 11.5352C9.94922 11.6992 9.46875 11.7812 9 11.7812C8.53125 11.7812 8.05078 11.6992 7.55859 11.5352C7.46484 11.5117 7.38281 11.5 7.3125 11.5C6.5625 11.5 5.88281 11.6992 5.27344 12.0977C4.66406 12.4727 4.19531 12.9766 3.86719 13.6094Z" fill="#BDBDBD"/>
</svg>
